<svg xmlns="http://www.w3.org/2000/svg" width="600" height="600">
<polygon points="113.14,136.054 227.712,136.054 227.712,27.211 342.284,27.211 342.284,136.054 456.856,136.054 456.856,281.179 466.404,281.179 466.404,272.109 475.952,272.109 475.952,281.179 485.499,281.179 485.499,272.109 480.129,272.109 480.129,263.039 481.919,263.039 481.919,261.338 483.709,261.338 483.709,263.039 485.499,263.039 485.499,260.015 483.709,260.015 483.709,256.992 485.499,256.992 485.499,253.968 514.142,253.968 514.142,281.179 542.786,281.179 542.786,329.554 571.429,329.554 571.429,377.929 561.881,377.929 561.881,386.999 558.698,386.999 558.698,390.023 555.516,390.023 555.516,386.999 552.333,386.999 552.333,377.929 542.786,377.929 542.786,426.304 514.142,426.304 514.142,453.515 504.595,453.515 504.595,456.538 506.385,456.538 506.385,459.562 504.595,459.562 504.595,462.585 495.047,462.585 495.047,459.562 493.257,459.562 493.257,456.538 495.047,456.538 495.047,453.515 491.865,453.515 491.865,456.538 488.682,456.538 488.682,453.515 485.499,453.515 485.499,444.444 480.129,444.444 480.129,435.374 485.499,435.374 485.499,426.304 482.317,426.304 482.317,429.327 479.134,429.327 479.134,426.304 475.952,426.304 475.952,435.374 466.404,435.374 466.404,432.351 464.614,432.351 464.614,429.327 466.404,429.327 466.404,426.304 463.222,426.304 463.222,429.327 460.039,429.327 460.039,426.304 456.856,426.304 456.856,474.679 485.499,474.679 485.499,523.054 456.856,523.054 456.856,571.429 113.14,571.429 113.14,523.054 84.497,523.054 84.497,474.679 113.14,474.679 113.14,426.304 27.211,426.304 27.211,281.179 113.14,281.179 113.14,232.804 84.497,232.804 84.497,184.429 113.14,184.429" class="polygon" opacity="1.0"/>
<line x1="113.14" y1="184.429" x2="227.712" y2="136.054" class="edge_style" opacity="1.0"/>
<line x1="227.712" y1="136.054" x2="342.284" y2="27.211" class="edge_style" opacity="1.0"/>
<line x1="227.712" y1="136.054" x2="342.284" y2="136.054" class="edge_style" opacity="1.0"/>
<line x1="113.14" y1="184.429" x2="342.284" y2="136.054" class="edge_style" opacity="1.0"/>
<line x1="113.14" y1="184.429" x2="456.856" y2="136.054" class="edge_style" opacity="1.0"/>
<line x1="113.14" y1="184.429" x2="456.856" y2="281.179" class="edge_style" opacity="1.0"/>
<line x1="466.404" y1="281.179" x2="475.952" y2="272.109" class="edge_style" opacity="1.0"/>
<line x1="466.404" y1="281.179" x2="475.952" y2="281.179" class="edge_style" opacity="1.0"/>
<line x1="485.499" y1="272.109" x2="480.129" y2="263.039" class="edge_style" opacity="1.0"/>
<line x1="485.499" y1="272.109" x2="481.919" y2="263.039" class="edge_style" opacity="1.0"/>
<line x1="485.499" y1="272.109" x2="481.919" y2="261.338" class="edge_style" opacity="1.0"/>
<line x1="481.919" y1="261.338" x2="483.709" y2="263.039" class="edge_style" opacity="1.0"/>
<line x1="485.499" y1="272.109" x2="483.709" y2="263.039" class="edge_style" opacity="1.0"/>
<line x1="485.499" y1="272.109" x2="485.499" y2="263.039" class="edge_style" opacity="1.0"/>
<line x1="485.499" y1="260.015" x2="483.709" y2="256.992" class="edge_style" opacity="1.0"/>
<line x1="485.499" y1="260.015" x2="485.499" y2="256.992" class="edge_style" opacity="1.0"/>
<line x1="485.499" y1="256.992" x2="514.142" y2="253.968" class="edge_style" opacity="1.0"/>
<line x1="485.499" y1="260.015" x2="514.142" y2="253.968" class="edge_style" opacity="1.0"/>
<line x1="485.499" y1="263.039" x2="514.142" y2="253.968" class="edge_style" opacity="1.0"/>
<line x1="485.499" y1="272.109" x2="514.142" y2="253.968" class="edge_style" opacity="1.0"/>
<line x1="485.499" y1="281.179" x2="514.142" y2="253.968" class="edge_style" opacity="1.0"/>
<line x1="485.499" y1="281.179" x2="514.142" y2="281.179" class="edge_style" opacity="1.0"/>
<line x1="514.142" y1="281.179" x2="542.786" y2="329.554" class="edge_style" opacity="1.0"/>
<line x1="485.499" y1="281.179" x2="542.786" y2="329.554" class="edge_style" opacity="1.0"/>
<line x1="475.952" y1="281.179" x2="542.786" y2="329.554" class="edge_style" opacity="1.0"/>
<line x1="466.404" y1="281.179" x2="542.786" y2="329.554" class="edge_style" opacity="1.0"/>
<line x1="456.856" y1="281.179" x2="542.786" y2="329.554" class="edge_style" opacity="1.0"/>
<line x1="113.14" y1="184.429" x2="542.786" y2="329.554" class="edge_style" opacity="1.0"/>
<line x1="542.786" y1="329.554" x2="571.429" y2="377.929" class="edge_style" opacity="1.0"/>
<line x1="113.14" y1="184.429" x2="571.429" y2="377.929" class="edge_style" opacity="1.0"/>
<line x1="113.14" y1="184.429" x2="561.881" y2="377.929" class="edge_style" opacity="1.0"/>
<line x1="561.881" y1="377.929" x2="558.698" y2="386.999" class="edge_style" opacity="1.0"/>
<line x1="558.698" y1="386.999" x2="555.516" y2="390.023" class="edge_style" opacity="1.0"/>
<line x1="561.881" y1="377.929" x2="555.516" y2="390.023" class="edge_style" opacity="1.0"/>
<line x1="561.881" y1="377.929" x2="555.516" y2="386.999" class="edge_style" opacity="1.0"/>
<line x1="561.881" y1="377.929" x2="552.333" y2="386.999" class="edge_style" opacity="1.0"/>
<line x1="561.881" y1="377.929" x2="552.333" y2="377.929" class="edge_style" opacity="1.0"/>
<line x1="113.14" y1="184.429" x2="552.333" y2="377.929" class="edge_style" opacity="1.0"/>
<line x1="113.14" y1="184.429" x2="542.786" y2="377.929" class="edge_style" opacity="1.0"/>
<line x1="113.14" y1="184.429" x2="542.786" y2="426.304" class="edge_style" opacity="1.0"/>
<line x1="113.14" y1="184.429" x2="514.142" y2="426.304" class="edge_style" opacity="1.0"/>
<line x1="514.142" y1="426.304" x2="504.595" y2="453.515" class="edge_style" opacity="1.0"/>
<line x1="504.595" y1="456.538" x2="506.385" y2="459.562" class="edge_style" opacity="1.0"/>
<line x1="504.595" y1="456.538" x2="504.595" y2="459.562" class="edge_style" opacity="1.0"/>
<line x1="504.595" y1="459.562" x2="495.047" y2="462.585" class="edge_style" opacity="1.0"/>
<line x1="504.595" y1="456.538" x2="495.047" y2="462.585" class="edge_style" opacity="1.0"/>
<line x1="504.595" y1="453.515" x2="495.047" y2="462.585" class="edge_style" opacity="1.0"/>
<line x1="514.142" y1="426.304" x2="495.047" y2="462.585" class="edge_style" opacity="1.0"/>
<line x1="514.142" y1="426.304" x2="495.047" y2="459.562" class="edge_style" opacity="1.0"/>
<line x1="514.142" y1="426.304" x2="493.257" y2="459.562" class="edge_style" opacity="1.0"/>
<line x1="493.257" y1="459.562" x2="495.047" y2="456.538" class="edge_style" opacity="1.0"/>
<line x1="514.142" y1="426.304" x2="495.047" y2="456.538" class="edge_style" opacity="1.0"/>
<line x1="514.142" y1="426.304" x2="495.047" y2="453.515" class="edge_style" opacity="1.0"/>
<line x1="514.142" y1="426.304" x2="491.865" y2="453.515" class="edge_style" opacity="1.0"/>
<line x1="491.865" y1="453.515" x2="488.682" y2="456.538" class="edge_style" opacity="1.0"/>
<line x1="514.142" y1="426.304" x2="488.682" y2="456.538" class="edge_style" opacity="1.0"/>
<line x1="514.142" y1="426.304" x2="488.682" y2="453.515" class="edge_style" opacity="1.0"/>
<line x1="514.142" y1="426.304" x2="485.499" y2="453.515" class="edge_style" opacity="1.0"/>
<line x1="514.142" y1="426.304" x2="485.499" y2="444.444" class="edge_style" opacity="1.0"/>
<line x1="514.142" y1="426.304" x2="480.129" y2="444.444" class="edge_style" opacity="1.0"/>
<line x1="480.129" y1="444.444" x2="485.499" y2="435.374" class="edge_style" opacity="1.0"/>
<line x1="514.142" y1="426.304" x2="485.499" y2="435.374" class="edge_style" opacity="1.0"/>
<line x1="514.142" y1="426.304" x2="485.499" y2="426.304" class="edge_style" opacity="1.0"/>
<line x1="113.14" y1="184.429" x2="485.499" y2="426.304" class="edge_style" opacity="1.0"/>
<line x1="113.14" y1="184.429" x2="482.317" y2="426.304" class="edge_style" opacity="1.0"/>
<line x1="482.317" y1="426.304" x2="479.134" y2="429.327" class="edge_style" opacity="1.0"/>
<line x1="482.317" y1="426.304" x2="479.134" y2="426.304" class="edge_style" opacity="1.0"/>
<line x1="113.14" y1="184.429" x2="479.134" y2="426.304" class="edge_style" opacity="1.0"/>
<line x1="113.14" y1="184.429" x2="475.952" y2="426.304" class="edge_style" opacity="1.0"/>
<line x1="475.952" y1="426.304" x2="466.404" y2="435.374" class="edge_style" opacity="1.0"/>
<line x1="475.952" y1="426.304" x2="466.404" y2="432.351" class="edge_style" opacity="1.0"/>
<line x1="475.952" y1="426.304" x2="464.614" y2="432.351" class="edge_style" opacity="1.0"/>
<line x1="464.614" y1="432.351" x2="466.404" y2="429.327" class="edge_style" opacity="1.0"/>
<line x1="475.952" y1="426.304" x2="466.404" y2="429.327" class="edge_style" opacity="1.0"/>
<line x1="475.952" y1="426.304" x2="466.404" y2="426.304" class="edge_style" opacity="1.0"/>
<line x1="113.14" y1="184.429" x2="466.404" y2="426.304" class="edge_style" opacity="1.0"/>
<line x1="113.14" y1="184.429" x2="463.222" y2="426.304" class="edge_style" opacity="1.0"/>
<line x1="463.222" y1="426.304" x2="460.039" y2="429.327" class="edge_style" opacity="1.0"/>
<line x1="463.222" y1="426.304" x2="460.039" y2="426.304" class="edge_style" opacity="1.0"/>
<line x1="113.14" y1="184.429" x2="460.039" y2="426.304" class="edge_style" opacity="1.0"/>
<line x1="113.14" y1="184.429" x2="456.856" y2="426.304" class="edge_style" opacity="1.0"/>
<line x1="113.14" y1="184.429" x2="456.856" y2="474.679" class="edge_style" opacity="1.0"/>
<line x1="456.856" y1="474.679" x2="485.499" y2="523.054" class="edge_style" opacity="1.0"/>
<line x1="113.14" y1="184.429" x2="485.499" y2="523.054" class="edge_style" opacity="1.0"/>
<line x1="113.14" y1="184.429" x2="456.856" y2="523.054" class="edge_style" opacity="1.0"/>
<line x1="113.14" y1="184.429" x2="456.856" y2="571.429" class="edge_style" opacity="1.0"/>
<line x1="456.856" y1="571.429" x2="113.14" y2="523.054" class="edge_style" opacity="1.0"/>
<line x1="113.14" y1="523.054" x2="84.497" y2="474.679" class="edge_style" opacity="1.0"/>
<line x1="456.856" y1="571.429" x2="84.497" y2="474.679" class="edge_style" opacity="1.0"/>
<line x1="456.856" y1="571.429" x2="113.14" y2="474.679" class="edge_style" opacity="1.0"/>
<line x1="456.856" y1="571.429" x2="113.14" y2="426.304" class="edge_style" opacity="1.0"/>
<line x1="113.14" y1="426.304" x2="27.211" y2="281.179" class="edge_style" opacity="1.0"/>
<line x1="456.856" y1="571.429" x2="27.211" y2="281.179" class="edge_style" opacity="1.0"/>
<line x1="456.856" y1="571.429" x2="113.14" y2="281.179" class="edge_style" opacity="1.0"/>
<line x1="456.856" y1="571.429" x2="113.14" y2="232.804" class="edge_style" opacity="1.0"/>
<line x1="113.14" y1="184.429" x2="113.14" y2="232.804" class="edge_style" opacity="1.0"/>
<line x1="113.14" y1="184.429" x2="84.497" y2="232.804" class="edge_style" opacity="1.0"/>
<circle cx="113.14" cy="136.054" class="red_point" opacity="1.0"/>
<circle cx="227.712" cy="136.054" class="green_point" opacity="1.0"/>
<circle cx="227.712" cy="27.211" class="red_point" opacity="1.0"/>
<circle cx="342.284" cy="27.211" class="blue_point" opacity="1.0"/>
<circle cx="342.284" cy="136.054" class="red_point" opacity="1.0"/>
<circle cx="456.856" cy="136.054" class="green_point" opacity="1.0"/>
<circle cx="456.856" cy="281.179" class="red_point" opacity="1.0"/>
<circle cx="466.404" cy="281.179" class="blue_point" opacity="1.0"/>
<circle cx="466.404" cy="272.109" class="red_point" opacity="1.0"/>
<circle cx="475.952" cy="272.109" class="green_point" opacity="1.0"/>
<circle cx="475.952" cy="281.179" class="red_point" opacity="1.0"/>
<circle cx="485.499" cy="281.179" class="blue_point" opacity="1.0"/>
<circle cx="485.499" cy="272.109" class="red_point" opacity="1.0"/>
<circle cx="480.129" cy="272.109" class="black_point" opacity="1.0"/>
<circle cx="480.129" cy="263.039" class="blue_point" opacity="1.0"/>
<circle cx="481.919" cy="263.039" class="green_point" opacity="1.0"/>
<circle cx="481.919" cy="261.338" class="blue_point" opacity="1.0"/>
<circle cx="483.709" cy="261.338" class="red_point" opacity="1.0"/>
<circle cx="483.709" cy="263.039" class="green_point" opacity="1.0"/>
<circle cx="485.499" cy="263.039" class="blue_point" opacity="1.0"/>
<circle cx="485.499" cy="260.015" class="red_point" opacity="1.0"/>
<circle cx="483.709" cy="260.015" class="blue_point" opacity="1.0"/>
<circle cx="483.709" cy="256.992" class="green_point" opacity="1.0"/>
<circle cx="485.499" cy="256.992" class="blue_point" opacity="1.0"/>
<circle cx="485.499" cy="253.968" class="red_point" opacity="1.0"/>
<circle cx="514.142" cy="253.968" class="green_point" opacity="1.0"/>
<circle cx="514.142" cy="281.179" class="red_point" opacity="1.0"/>
<circle cx="542.786" cy="281.179" class="blue_point" opacity="1.0"/>
<circle cx="542.786" cy="329.554" class="green_point" opacity="1.0"/>
<circle cx="571.429" cy="329.554" class="blue_point" opacity="1.0"/>
<circle cx="571.429" cy="377.929" class="red_point" opacity="1.0"/>
<circle cx="561.881" cy="377.929" class="green_point" opacity="1.0"/>
<circle cx="561.881" cy="386.999" class="blue_point" opacity="1.0"/>
<circle cx="558.698" cy="386.999" class="red_point" opacity="1.0"/>
<circle cx="558.698" cy="390.023" class="green_point" opacity="1.0"/>
<circle cx="555.516" cy="390.023" class="blue_point" opacity="1.0"/>
<circle cx="555.516" cy="386.999" class="red_point" opacity="1.0"/>
<circle cx="552.333" cy="386.999" class="blue_point" opacity="1.0"/>
<circle cx="552.333" cy="377.929" class="red_point" opacity="1.0"/>
<circle cx="542.786" cy="377.929" class="green_point" opacity="1.0"/>
<circle cx="542.786" cy="426.304" class="red_point" opacity="1.0"/>
<circle cx="514.142" cy="426.304" class="green_point" opacity="1.0"/>
<circle cx="514.142" cy="453.515" class="black_point" opacity="1.0"/>
<circle cx="504.595" cy="453.515" class="black_point" opacity="1.0"/>
<circle cx="504.595" cy="456.538" class="black_point" opacity="1.0"/>
<circle cx="506.385" cy="456.538" class="black_point" opacity="1.0"/>
<circle cx="506.385" cy="459.562" class="black_point" opacity="1.0"/>
<circle cx="504.595" cy="459.562" class="black_point" opacity="1.0"/>
<circle cx="504.595" cy="462.585" class="black_point" opacity="1.0"/>
<circle cx="495.047" cy="462.585" class="black_point" opacity="1.0"/>
<circle cx="495.047" cy="459.562" class="black_point" opacity="1.0"/>
<circle cx="493.257" cy="459.562" class="black_point" opacity="1.0"/>
<circle cx="493.257" cy="456.538" class="black_point" opacity="1.0"/>
<circle cx="495.047" cy="456.538" class="black_point" opacity="1.0"/>
<circle cx="495.047" cy="453.515" class="black_point" opacity="1.0"/>
<circle cx="491.865" cy="453.515" class="black_point" opacity="1.0"/>
<circle cx="491.865" cy="456.538" class="black_point" opacity="1.0"/>
<circle cx="488.682" cy="456.538" class="black_point" opacity="1.0"/>
<circle cx="488.682" cy="453.515" class="black_point" opacity="1.0"/>
<circle cx="485.499" cy="453.515" class="black_point" opacity="1.0"/>
<circle cx="485.499" cy="444.444" class="blue_point" opacity="1.0"/>
<circle cx="480.129" cy="444.444" class="red_point" opacity="1.0"/>
<circle cx="480.129" cy="435.374" class="green_point" opacity="1.0"/>
<circle cx="485.499" cy="435.374" class="blue_point" opacity="1.0"/>
<circle cx="485.499" cy="426.304" class="red_point" opacity="1.0"/>
<circle cx="482.317" cy="426.304" class="green_point" opacity="1.0"/>
<circle cx="482.317" cy="429.327" class="black_point" opacity="1.0"/>
<circle cx="479.134" cy="429.327" class="blue_point" opacity="1.0"/>
<circle cx="479.134" cy="426.304" class="red_point" opacity="1.0"/>
<circle cx="475.952" cy="426.304" class="green_point" opacity="1.0"/>
<circle cx="475.952" cy="435.374" class="black_point" opacity="1.0"/>
<circle cx="466.404" cy="435.374" class="black_point" opacity="1.0"/>
<circle cx="466.404" cy="432.351" class="black_point" opacity="1.0"/>
<circle cx="464.614" cy="432.351" class="black_point" opacity="1.0"/>
<circle cx="464.614" cy="429.327" class="black_point" opacity="1.0"/>
<circle cx="466.404" cy="429.327" class="black_point" opacity="1.0"/>
<circle cx="466.404" cy="426.304" class="black_point" opacity="1.0"/>
<circle cx="463.222" cy="426.304" class="black_point" opacity="1.0"/>
<circle cx="463.222" cy="429.327" class="black_point" opacity="1.0"/>
<circle cx="460.039" cy="429.327" class="black_point" opacity="1.0"/>
<circle cx="460.039" cy="426.304" class="black_point" opacity="1.0"/>
<circle cx="456.856" cy="426.304" class="black_point" opacity="1.0"/>
<circle cx="456.856" cy="474.679" class="black_point" opacity="1.0"/>
<circle cx="485.499" cy="474.679" class="black_point" opacity="1.0"/>
<circle cx="485.499" cy="523.054" class="black_point" opacity="1.0"/>
<circle cx="456.856" cy="523.054" class="black_point" opacity="1.0"/>
<circle cx="456.856" cy="571.429" class="black_point" opacity="1.0"/>
<circle cx="113.14" cy="571.429" class="black_point" opacity="1.0"/>
<circle cx="113.14" cy="523.054" class="black_point" opacity="1.0"/>
<circle cx="84.497" cy="523.054" class="black_point" opacity="1.0"/>
<circle cx="84.497" cy="474.679" class="black_point" opacity="1.0"/>
<circle cx="113.14" cy="474.679" class="black_point" opacity="1.0"/>
<circle cx="113.14" cy="426.304" class="black_point" opacity="1.0"/>
<circle cx="27.211" cy="426.304" class="black_point" opacity="1.0"/>
<circle cx="27.211" cy="281.179" class="black_point" opacity="1.0"/>
<circle cx="113.14" cy="281.179" class="black_point" opacity="1.0"/>
<circle cx="113.14" cy="232.804" class="black_point" opacity="1.0"/>
<circle cx="84.497" cy="232.804" class="black_point" opacity="1.0"/>
<circle cx="84.497" cy="184.429" class="black_point" opacity="1.0"/>
<circle cx="113.14" cy="184.429" class="blue_point" opacity="1.0"/>
</svg>