<svg xmlns="http://www.w3.org/2000/svg" width="400" height="400">
<polygon points="36.364,36.364 72.727,36.364 72.727,72.727 145.455,72.727 145.455,145.455 218.182,145.455 218.182,218.182 290.909,218.182 290.909,290.909 363.636,290.909 363.636,363.636 327.273,363.636 327.273,327.273 254.545,327.273 254.545,254.545 181.818,254.545 181.818,181.818 109.091,181.818 109.091,109.091 36.364,109.091" class="polygon" opacity="1.0"/>
<line x1="36.364" y1="109.091" x2="72.727" y2="36.364" class="edge_style" opacity="1.0"/>
<line x1="36.364" y1="109.091" x2="72.727" y2="72.727" class="edge_style" opacity="1.0"/>
<line x1="36.364" y1="109.091" x2="145.455" y2="72.727" class="edge_style" opacity="1.0"/>
<line x1="363.636" y1="290.909" x2="327.273" y2="363.636" class="edge_style" opacity="1.0"/>
<line x1="363.636" y1="290.909" x2="327.273" y2="327.273" class="edge_style" opacity="1.0"/>
<line x1="290.909" y1="290.909" x2="327.273" y2="327.273" class="edge_style" opacity="1.0"/>
<line x1="290.909" y1="290.909" x2="254.545" y2="327.273" class="edge_style" opacity="1.0"/>
<line x1="290.909" y1="218.182" x2="254.545" y2="327.273" class="edge_style" opacity="1.0"/>
<line x1="290.909" y1="218.182" x2="254.545" y2="254.545" class="edge_style" opacity="1.0"/>
<line x1="218.182" y1="218.182" x2="254.545" y2="254.545" class="edge_style" opacity="1.0"/>
<line x1="218.182" y1="218.182" x2="181.818" y2="254.545" class="edge_style" opacity="1.0"/>
<line x1="218.182" y1="145.455" x2="181.818" y2="254.545" class="edge_style" opacity="1.0"/>
<line x1="218.182" y1="145.455" x2="181.818" y2="181.818" class="edge_style" opacity="1.0"/>
<line x1="145.455" y1="145.455" x2="181.818" y2="181.818" class="edge_style" opacity="1.0"/>
<line x1="145.455" y1="145.455" x2="109.091" y2="181.818" class="edge_style" opacity="1.0"/>
<line x1="145.455" y1="72.727" x2="109.091" y2="181.818" class="edge_style" opacity="1.0"/>
<line x1="145.455" y1="72.727" x2="109.091" y2="109.091" class="edge_style" opacity="1.0"/>
<polygon points="290.909,290.909 363.636,290.909 327.273,327.273" class="red_triangle" opacity="1.0"/>
<circle cx="36.364" cy="36.364" class="red_point" opacity="1.0"/>
<circle cx="72.727" cy="36.364" class="green_point" opacity="1.0"/>
<circle cx="72.727" cy="72.727" class="red_point" opacity="1.0"/>
<circle cx="145.455" cy="72.727" class="green_point" opacity="1.0"/>
<circle cx="145.455" cy="145.455" class="red_point" opacity="1.0"/>
<circle cx="218.182" cy="145.455" class="blue_point" opacity="1.0"/>
<circle cx="218.182" cy="218.182" class="green_point" opacity="1.0"/>
<circle cx="290.909" cy="218.182" class="red_point" opacity="1.0"/>
<circle cx="290.909" cy="290.909" class="blue_point" opacity="1.0"/>
<circle cx="363.636" cy="290.909" class="black_point" opacity="1.0"/>
<circle cx="363.636" cy="363.636" class="black_point" opacity="1.0"/>
<circle cx="327.273" cy="363.636" class="black_point" opacity="1.0"/>
<circle cx="327.273" cy="327.273" class="red_point" opacity="1.0"/>
<circle cx="254.545" cy="327.273" class="green_point" opacity="1.0"/>
<circle cx="254.545" cy="254.545" class="blue_point" opacity="1.0"/>
<circle cx="181.818" cy="254.545" class="red_point" opacity="1.0"/>
<circle cx="181.818" cy="181.818" class="green_point" opacity="1.0"/>
<circle cx="109.091" cy="181.818" class="blue_point" opacity="1.0"/>
<circle cx="109.091" cy="109.091" class="red_point" opacity="1.0"/>
<circle cx="36.364" cy="109.091" class="blue_point" opacity="1.0"/>
</svg>