<svg xmlns="http://www.w3.org/2000/svg" width="600" height="600">
<polygon points="27.211,27.211 87.68,27.211 87.68,87.68 208.617,87.68 208.617,208.617 329.554,208.617 329.554,329.554 450.491,329.554 450.491,450.491 571.429,450.491 571.429,571.429 510.96,571.429 510.96,510.96 390.023,510.96 390.023,390.023 269.085,390.023 269.085,269.085 148.148,269.085 148.148,148.148 27.211,148.148" class="polygon" opacity="1.0"/>
<line x1="27.211" y1="148.148" x2="87.68" y2="27.211" class="edge_style" opacity="1.0"/>
<line x1="27.211" y1="148.148" x2="87.68" y2="87.68" class="edge_style" opacity="1.0"/>
<line x1="27.211" y1="148.148" x2="208.617" y2="87.68" class="edge_style" opacity="1.0"/>
<line x1="571.429" y1="450.491" x2="510.96" y2="571.429" class="edge_style" opacity="1.0"/>
<line x1="571.429" y1="450.491" x2="510.96" y2="510.96" class="edge_style" opacity="1.0"/>
<line x1="450.491" y1="450.491" x2="510.96" y2="510.96" class="edge_style" opacity="1.0"/>
<line x1="450.491" y1="450.491" x2="390.023" y2="510.96" class="edge_style" opacity="1.0"/>
<line x1="450.491" y1="329.554" x2="390.023" y2="510.96" class="edge_style" opacity="1.0"/>
<line x1="450.491" y1="329.554" x2="390.023" y2="390.023" class="edge_style" opacity="1.0"/>
<line x1="329.554" y1="329.554" x2="390.023" y2="390.023" class="edge_style" opacity="1.0"/>
<line x1="329.554" y1="329.554" x2="269.085" y2="390.023" class="edge_style" opacity="1.0"/>
<line x1="329.554" y1="208.617" x2="269.085" y2="390.023" class="edge_style" opacity="1.0"/>
<line x1="329.554" y1="208.617" x2="269.085" y2="269.085" class="edge_style" opacity="1.0"/>
<line x1="208.617" y1="208.617" x2="269.085" y2="269.085" class="edge_style" opacity="1.0"/>
<line x1="208.617" y1="208.617" x2="148.148" y2="269.085" class="edge_style" opacity="1.0"/>
<line x1="208.617" y1="87.68" x2="148.148" y2="269.085" class="edge_style" opacity="1.0"/>
<line x1="208.617" y1="87.68" x2="148.148" y2="148.148" class="edge_style" opacity="1.0"/>
<polygon points="450.491,450.491 510.96,510.96 390.023,510.96" class="highlight_polygon" opacity="1.0"/>
<circle cx="27.211" cy="27.211" class="red_point" opacity="1.0"/>
<circle cx="87.68" cy="27.211" class="green_point" opacity="1.0"/>
<circle cx="87.68" cy="87.68" class="red_point" opacity="1.0"/>
<circle cx="208.617" cy="87.68" class="green_point" opacity="1.0"/>
<circle cx="208.617" cy="208.617" class="red_point" opacity="1.0"/>
<circle cx="329.554" cy="208.617" class="blue_point" opacity="1.0"/>
<circle cx="329.554" cy="329.554" class="green_point" opacity="1.0"/>
<circle cx="450.491" cy="329.554" class="red_point" opacity="1.0"/>
<circle cx="450.491" cy="450.491" class="blue_point" opacity="1.0"/>
<circle cx="571.429" cy="450.491" class="black_point" opacity="1.0"/>
<circle cx="571.429" cy="571.429" class="black_point" opacity="1.0"/>
<circle cx="510.96" cy="571.429" class="black_point" opacity="1.0"/>
<circle cx="510.96" cy="510.96" class="black_point" opacity="1.0"/>
<circle cx="390.023" cy="510.96" class="green_point" opacity="1.0"/>
<circle cx="390.023" cy="390.023" class="blue_point" opacity="1.0"/>
<circle cx="269.085" cy="390.023" class="red_point" opacity="1.0"/>
<circle cx="269.085" cy="269.085" class="green_point" opacity="1.0"/>
<circle cx="148.148" cy="269.085" class="blue_point" opacity="1.0"/>
<circle cx="148.148" cy="148.148" class="red_point" opacity="1.0"/>
<circle cx="27.211" cy="148.148" class="blue_point" opacity="1.0"/>
</svg>