<svg xmlns="http://www.w3.org/2000/svg" width="500" height="500">
<polygon points="22.676,22.676 73.066,22.676 73.066,73.066 173.847,73.066 173.847,173.847 274.628,173.847 274.628,274.628 375.409,274.628 375.409,375.409 476.19,375.409 476.19,476.19 425.8,476.19 425.8,425.8 325.019,425.8 325.019,325.019 224.238,325.019 224.238,224.238 123.457,224.238 123.457,123.457 22.676,123.457" class="polygon" opacity="0.4"/>
<line x1="22.676" y1="123.457" x2="73.066" y2="22.676" class="edge_style" opacity="0.4"/>
<line x1="22.676" y1="123.457" x2="73.066" y2="73.066" class="edge_style" opacity="0.4"/>
<line x1="22.676" y1="123.457" x2="173.847" y2="73.066" class="edge_style" opacity="0.4"/>
<line x1="476.19" y1="375.409" x2="425.8" y2="476.19" class="edge_style" opacity="0.4"/>
<line x1="476.19" y1="375.409" x2="425.8" y2="425.8" class="edge_style" opacity="0.4"/>
<line x1="375.409" y1="375.409" x2="425.8" y2="425.8" class="edge_style" opacity="0.4"/>
<line x1="375.409" y1="375.409" x2="325.019" y2="425.8" class="edge_style" opacity="0.4"/>
<line x1="375.409" y1="274.628" x2="325.019" y2="425.8" class="edge_style" opacity="0.4"/>
<line x1="375.409" y1="274.628" x2="325.019" y2="325.019" class="edge_style" opacity="0.4"/>
<line x1="274.628" y1="274.628" x2="325.019" y2="325.019" class="edge_style" opacity="0.4"/>
<line x1="274.628" y1="274.628" x2="224.238" y2="325.019" class="edge_style" opacity="0.4"/>
<line x1="274.628" y1="173.847" x2="224.238" y2="325.019" class="edge_style" opacity="0.4"/>
<line x1="274.628" y1="173.847" x2="224.238" y2="224.238" class="edge_style" opacity="0.4"/>
<line x1="173.847" y1="173.847" x2="224.238" y2="224.238" class="edge_style" opacity="0.4"/>
<line x1="173.847" y1="173.847" x2="123.457" y2="224.238" class="edge_style" opacity="0.4"/>
<line x1="173.847" y1="73.066" x2="123.457" y2="224.238" class="edge_style" opacity="0.4"/>
<line x1="173.847" y1="73.066" x2="123.457" y2="123.457" class="edge_style" opacity="0.4"/>
<polygon points="173.847,73.066 173.847,173.847 274.628,173.847 274.628,274.628 325.019,325.019 224.238,325.019 224.238,224.238 123.457,224.238 123.457,123.457 22.676,123.457" class="polygon" opacity="1.0"/>
<line x1="274.6283698664651" y1="173.84731670445956" x2="325.01889644746785" y2="325.01889644746785" class="line_style"/><circle cx="173.847" cy="73.066" class="black_point" opacity="1.0"/>
<circle cx="173.847" cy="173.847" class="black_point" opacity="1.0"/>
<circle cx="274.628" cy="173.847" class="black_point" opacity="1.0"/>
<circle cx="274.628" cy="274.628" class="red_point" opacity="1.0"/>
<circle cx="325.019" cy="325.019" class="green_point" opacity="1.0"/>
<circle cx="224.238" cy="325.019" class="black_point" opacity="1.0"/>
<circle cx="224.238" cy="224.238" class="black_point" opacity="1.0"/>
<circle cx="123.457" cy="224.238" class="black_point" opacity="1.0"/>
<circle cx="123.457" cy="123.457" class="black_point" opacity="1.0"/>
<circle cx="22.676" cy="123.457" class="green_point" opacity="1.0"/>
</svg>