<svg xmlns="http://www.w3.org/2000/svg" width="600" height="600">
<polygon points="154.869,336.319 177.216,359.238 71.037,436.153 27.211,412.44 87.414,185.342 31.029,190.219 41.359,171.738 75.302,111.821 61.21,83.83 86.175,91.701 96.985,89.996 171.78,115.741 197.901,100.571 227.474,138.173 290.421,174.68 238.462,95.245 195.916,85.514 382.202,109.075 385.714,108.688 426.846,108.114 423.781,90.528 479.458,188.137 525.069,336.922 510.653,327.586 500.005,322.237 492.919,335.949 553.404,370.825 559.341,241.512 541.36,253.684 506.218,198.148 525.438,132.339 476.758,81.589 501.636,72.006 467.099,79.847 395.901,67.446 307.521,38.908 232.013,41.859 404.346,31.85 502.077,27.211 546.632,50.935 559.492,102.06 565.63,152.856 571.429,324.713 567.302,480.049 536.98,538.624 521.722,560.797 470.609,510.687 498.612,492.57 490.757,345.528 464.536,207.443 460.233,232.846 421.706,126.585 436.283,225.024 387.589,148.303 367.884,130.343 333.033,158.157 350.289,209.893 440.841,239.202 459.044,276.712 377.265,387.654 359.309,389.264 324.313,322.962 375.018,227.472 347.494,233.198 249.989,324.074 313.384,389.501 420.215,404.016 435.442,373.675 436.351,351.48 467.519,410.157 450.385,493.846 510.539,559.784 248.232,571.429 162.189,557.733 175.27,538.865 154.517,529.687 30.354,509.862 77.978,470.68 148.268,392.312 178.417,455.893 194.268,527.287 204.518,536.041 459.575,545.102 269.529,495.136 388.267,450.077 341.46,454.995 284.11,469.191 275.494,469.31 238.499,424.501 245.105,376.702 212.938,304.843 199.197,274.503 275.703,224.47 212.171,219.653 211.532,170.395 162.455,130.879 113.011,197.473 166.109,168.317 174.495,234.409 189.091,277.854" class="polygon" opacity="0.4"/>
<line x1="154.869" y1="336.319" x2="71.037" y2="436.153" class="edge_style" opacity="0.4"/>
<line x1="189.091" y1="277.854" x2="71.037" y2="436.153" class="edge_style" opacity="0.4"/>
<line x1="189.091" y1="277.854" x2="27.211" y2="412.44" class="edge_style" opacity="0.4"/>
<line x1="189.091" y1="277.854" x2="87.414" y2="185.342" class="edge_style" opacity="0.4"/>
<line x1="87.414" y1="185.342" x2="41.359" y2="171.738" class="edge_style" opacity="0.4"/>
<line x1="87.414" y1="185.342" x2="75.302" y2="111.821" class="edge_style" opacity="0.4"/>
<line x1="75.302" y1="111.821" x2="86.175" y2="91.701" class="edge_style" opacity="0.4"/>
<line x1="87.414" y1="185.342" x2="86.175" y2="91.701" class="edge_style" opacity="0.4"/>
<line x1="87.414" y1="185.342" x2="96.985" y2="89.996" class="edge_style" opacity="0.4"/>
<line x1="87.414" y1="185.342" x2="171.78" y2="115.741" class="edge_style" opacity="0.4"/>
<line x1="87.414" y1="185.342" x2="197.901" y2="100.571" class="edge_style" opacity="0.4"/>
<line x1="238.462" y1="95.245" x2="382.202" y2="109.075" class="edge_style" opacity="0.4"/>
<line x1="290.421" y1="174.68" x2="382.202" y2="109.075" class="edge_style" opacity="0.4"/>
<line x1="290.421" y1="174.68" x2="385.714" y2="108.688" class="edge_style" opacity="0.4"/>
<line x1="426.846" y1="108.114" x2="479.458" y2="188.137" class="edge_style" opacity="0.4"/>
<line x1="426.846" y1="108.114" x2="525.069" y2="336.922" class="edge_style" opacity="0.4"/>
<line x1="426.846" y1="108.114" x2="510.653" y2="327.586" class="edge_style" opacity="0.4"/>
<line x1="559.341" y1="241.512" x2="506.218" y2="198.148" class="edge_style" opacity="0.4"/>
<line x1="559.341" y1="241.512" x2="525.438" y2="132.339" class="edge_style" opacity="0.4"/>
<line x1="525.438" y1="132.339" x2="501.636" y2="72.006" class="edge_style" opacity="0.4"/>
<line x1="501.636" y1="72.006" x2="395.901" y2="67.446" class="edge_style" opacity="0.4"/>
<line x1="501.636" y1="72.006" x2="307.521" y2="38.908" class="edge_style" opacity="0.4"/>
<line x1="307.521" y1="38.908" x2="404.346" y2="31.85" class="edge_style" opacity="0.4"/>
<line x1="501.636" y1="72.006" x2="404.346" y2="31.85" class="edge_style" opacity="0.4"/>
<line x1="501.636" y1="72.006" x2="502.077" y2="27.211" class="edge_style" opacity="0.4"/>
<line x1="525.438" y1="132.339" x2="502.077" y2="27.211" class="edge_style" opacity="0.4"/>
<line x1="559.341" y1="241.512" x2="502.077" y2="27.211" class="edge_style" opacity="0.4"/>
<line x1="559.341" y1="241.512" x2="546.632" y2="50.935" class="edge_style" opacity="0.4"/>
<line x1="559.341" y1="241.512" x2="559.492" y2="102.06" class="edge_style" opacity="0.4"/>
<line x1="559.341" y1="241.512" x2="565.63" y2="152.856" class="edge_style" opacity="0.4"/>
<line x1="553.404" y1="370.825" x2="565.63" y2="152.856" class="edge_style" opacity="0.4"/>
<line x1="553.404" y1="370.825" x2="571.429" y2="324.713" class="edge_style" opacity="0.4"/>
<line x1="553.404" y1="370.825" x2="567.302" y2="480.049" class="edge_style" opacity="0.4"/>
<line x1="492.919" y1="335.949" x2="567.302" y2="480.049" class="edge_style" opacity="0.4"/>
<line x1="492.919" y1="335.949" x2="536.98" y2="538.624" class="edge_style" opacity="0.4"/>
<line x1="492.919" y1="335.949" x2="521.722" y2="560.797" class="edge_style" opacity="0.4"/>
<line x1="521.722" y1="560.797" x2="498.612" y2="492.57" class="edge_style" opacity="0.4"/>
<line x1="492.919" y1="335.949" x2="498.612" y2="492.57" class="edge_style" opacity="0.4"/>
<line x1="492.919" y1="335.949" x2="490.757" y2="345.528" class="edge_style" opacity="0.4"/>
<line x1="492.919" y1="335.949" x2="464.536" y2="207.443" class="edge_style" opacity="0.4"/>
<line x1="500.005" y1="322.237" x2="464.536" y2="207.443" class="edge_style" opacity="0.4"/>
<line x1="510.653" y1="327.586" x2="464.536" y2="207.443" class="edge_style" opacity="0.4"/>
<line x1="426.846" y1="108.114" x2="464.536" y2="207.443" class="edge_style" opacity="0.4"/>
<line x1="426.846" y1="108.114" x2="460.233" y2="232.846" class="edge_style" opacity="0.4"/>
<line x1="426.846" y1="108.114" x2="421.706" y2="126.585" class="edge_style" opacity="0.4"/>
<line x1="385.714" y1="108.688" x2="421.706" y2="126.585" class="edge_style" opacity="0.4"/>
<line x1="385.714" y1="108.688" x2="436.283" y2="225.024" class="edge_style" opacity="0.4"/>
<line x1="385.714" y1="108.688" x2="387.589" y2="148.303" class="edge_style" opacity="0.4"/>
<line x1="385.714" y1="108.688" x2="367.884" y2="130.343" class="edge_style" opacity="0.4"/>
<line x1="290.421" y1="174.68" x2="367.884" y2="130.343" class="edge_style" opacity="0.4"/>
<line x1="290.421" y1="174.68" x2="333.033" y2="158.157" class="edge_style" opacity="0.4"/>
<line x1="290.421" y1="174.68" x2="350.289" y2="209.893" class="edge_style" opacity="0.4"/>
<line x1="227.474" y1="138.173" x2="350.289" y2="209.893" class="edge_style" opacity="0.4"/>
<line x1="350.289" y1="209.893" x2="459.044" y2="276.712" class="edge_style" opacity="0.4"/>
<line x1="227.474" y1="138.173" x2="459.044" y2="276.712" class="edge_style" opacity="0.4"/>
<line x1="459.044" y1="276.712" x2="359.309" y2="389.264" class="edge_style" opacity="0.4"/>
<line x1="459.044" y1="276.712" x2="324.313" y2="322.962" class="edge_style" opacity="0.4"/>
<line x1="459.044" y1="276.712" x2="375.018" y2="227.472" class="edge_style" opacity="0.4"/>
<line x1="227.474" y1="138.173" x2="375.018" y2="227.472" class="edge_style" opacity="0.4"/>
<line x1="227.474" y1="138.173" x2="347.494" y2="233.198" class="edge_style" opacity="0.4"/>
<line x1="435.442" y1="373.675" x2="467.519" y2="410.157" class="edge_style" opacity="0.4"/>
<line x1="420.215" y1="404.016" x2="467.519" y2="410.157" class="edge_style" opacity="0.4"/>
<line x1="420.215" y1="404.016" x2="450.385" y2="493.846" class="edge_style" opacity="0.4"/>
<line x1="313.384" y1="389.501" x2="450.385" y2="493.846" class="edge_style" opacity="0.4"/>
<line x1="510.539" y1="559.784" x2="162.189" y2="557.733" class="edge_style" opacity="0.4"/>
<line x1="510.539" y1="559.784" x2="175.27" y2="538.865" class="edge_style" opacity="0.4"/>
<line x1="154.517" y1="529.687" x2="77.978" y2="470.68" class="edge_style" opacity="0.4"/>
<line x1="175.27" y1="538.865" x2="77.978" y2="470.68" class="edge_style" opacity="0.4"/>
<line x1="175.27" y1="538.865" x2="148.268" y2="392.312" class="edge_style" opacity="0.4"/>
<line x1="175.27" y1="538.865" x2="178.417" y2="455.893" class="edge_style" opacity="0.4"/>
<line x1="175.27" y1="538.865" x2="194.268" y2="527.287" class="edge_style" opacity="0.4"/>
<line x1="175.27" y1="538.865" x2="204.518" y2="536.041" class="edge_style" opacity="0.4"/>
<line x1="510.539" y1="559.784" x2="204.518" y2="536.041" class="edge_style" opacity="0.4"/>
<line x1="510.539" y1="559.784" x2="459.575" y2="545.102" class="edge_style" opacity="0.4"/>
<line x1="450.385" y1="493.846" x2="459.575" y2="545.102" class="edge_style" opacity="0.4"/>
<line x1="450.385" y1="493.846" x2="269.529" y2="495.136" class="edge_style" opacity="0.4"/>
<line x1="450.385" y1="493.846" x2="388.267" y2="450.077" class="edge_style" opacity="0.4"/>
<line x1="313.384" y1="389.501" x2="388.267" y2="450.077" class="edge_style" opacity="0.4"/>
<line x1="313.384" y1="389.501" x2="341.46" y2="454.995" class="edge_style" opacity="0.4"/>
<line x1="249.989" y1="324.074" x2="341.46" y2="454.995" class="edge_style" opacity="0.4"/>
<line x1="249.989" y1="324.074" x2="284.11" y2="469.191" class="edge_style" opacity="0.4"/>
<line x1="249.989" y1="324.074" x2="275.494" y2="469.31" class="edge_style" opacity="0.4"/>
<line x1="275.494" y1="469.31" x2="245.105" y2="376.702" class="edge_style" opacity="0.4"/>
<line x1="249.989" y1="324.074" x2="245.105" y2="376.702" class="edge_style" opacity="0.4"/>
<line x1="249.989" y1="324.074" x2="212.938" y2="304.843" class="edge_style" opacity="0.4"/>
<line x1="347.494" y1="233.198" x2="212.938" y2="304.843" class="edge_style" opacity="0.4"/>
<line x1="347.494" y1="233.198" x2="199.197" y2="274.503" class="edge_style" opacity="0.4"/>
<line x1="347.494" y1="233.198" x2="275.703" y2="224.47" class="edge_style" opacity="0.4"/>
<line x1="227.474" y1="138.173" x2="275.703" y2="224.47" class="edge_style" opacity="0.4"/>
<line x1="197.901" y1="100.571" x2="275.703" y2="224.47" class="edge_style" opacity="0.4"/>
<line x1="275.703" y1="224.47" x2="211.532" y2="170.395" class="edge_style" opacity="0.4"/>
<line x1="197.901" y1="100.571" x2="211.532" y2="170.395" class="edge_style" opacity="0.4"/>
<line x1="197.901" y1="100.571" x2="162.455" y2="130.879" class="edge_style" opacity="0.4"/>
<line x1="87.414" y1="185.342" x2="162.455" y2="130.879" class="edge_style" opacity="0.4"/>
<line x1="87.414" y1="185.342" x2="113.011" y2="197.473" class="edge_style" opacity="0.4"/>
<line x1="189.091" y1="277.854" x2="113.011" y2="197.473" class="edge_style" opacity="0.4"/>
<line x1="113.011" y1="197.473" x2="174.495" y2="234.409" class="edge_style" opacity="0.4"/>
<polygon points="87.414,185.342 197.901,100.571 227.474,138.173 290.421,174.68 385.714,108.688 426.846,108.114 510.653,327.586 500.005,322.237 492.919,335.949 553.404,370.825 559.341,241.512 525.438,132.339 501.636,72.006 404.346,31.85 502.077,27.211 546.632,50.935 559.492,102.06 565.63,152.856 571.429,324.713 567.302,480.049 536.98,538.624 521.722,560.797 470.609,510.687 498.612,492.57 490.757,345.528 464.536,207.443 460.233,232.846 421.706,126.585 436.283,225.024 387.589,148.303 367.884,130.343 333.033,158.157 350.289,209.893 440.841,239.202 459.044,276.712 377.265,387.654 359.309,389.264 324.313,322.962 375.018,227.472 347.494,233.198 249.989,324.074 313.384,389.501 420.215,404.016 435.442,373.675 436.351,351.48 467.519,410.157 450.385,493.846 510.539,559.784 248.232,571.429 162.189,557.733 175.27,538.865 154.517,529.687 30.354,509.862 77.978,470.68 148.268,392.312 178.417,455.893 194.268,527.287 204.518,536.041 459.575,545.102 269.529,495.136 388.267,450.077 341.46,454.995 284.11,469.191 275.494,469.31 238.499,424.501 245.105,376.702 212.938,304.843 199.197,274.503 275.703,224.47 212.171,219.653 211.532,170.395 162.455,130.879 113.011,197.473 166.109,168.317 174.495,234.409 189.091,277.854" class="polygon" opacity="1.0"/>
<line x1="501.6358187670934" y1="72.00558236658316" x2="502.0766835083497" y2="27.210884353741495" class="line_style"/><circle cx="87.414" cy="185.342" class="black_point" opacity="1.0"/>
<circle cx="197.901" cy="100.571" class="black_point" opacity="1.0"/>
<circle cx="227.474" cy="138.173" class="black_point" opacity="1.0"/>
<circle cx="290.421" cy="174.68" class="black_point" opacity="1.0"/>
<circle cx="385.714" cy="108.688" class="black_point" opacity="1.0"/>
<circle cx="426.846" cy="108.114" class="black_point" opacity="1.0"/>
<circle cx="510.653" cy="327.586" class="black_point" opacity="1.0"/>
<circle cx="500.005" cy="322.237" class="black_point" opacity="1.0"/>
<circle cx="492.919" cy="335.949" class="black_point" opacity="1.0"/>
<circle cx="553.404" cy="370.825" class="black_point" opacity="1.0"/>
<circle cx="559.341" cy="241.512" class="black_point" opacity="1.0"/>
<circle cx="525.438" cy="132.339" class="black_point" opacity="1.0"/>
<circle cx="501.636" cy="72.006" class="black_point" opacity="1.0"/>
<circle cx="404.346" cy="31.85" class="green_point" opacity="1.0"/>
<circle cx="502.077" cy="27.211" class="green_point" opacity="1.0"/>
<circle cx="546.632" cy="50.935" class="green_point" opacity="1.0"/>
<circle cx="559.492" cy="102.06" class="green_point" opacity="1.0"/>
<circle cx="565.63" cy="152.856" class="green_point" opacity="1.0"/>
<circle cx="571.429" cy="324.713" class="green_point" opacity="1.0"/>
<circle cx="567.302" cy="480.049" class="green_point" opacity="1.0"/>
<circle cx="536.98" cy="538.624" class="green_point" opacity="1.0"/>
<circle cx="521.722" cy="560.797" class="green_point" opacity="1.0"/>
<circle cx="470.609" cy="510.687" class="green_point" opacity="1.0"/>
<circle cx="498.612" cy="492.57" class="black_point" opacity="1.0"/>
<circle cx="490.757" cy="345.528" class="black_point" opacity="1.0"/>
<circle cx="464.536" cy="207.443" class="black_point" opacity="1.0"/>
<circle cx="460.233" cy="232.846" class="green_point" opacity="1.0"/>
<circle cx="421.706" cy="126.585" class="black_point" opacity="1.0"/>
<circle cx="436.283" cy="225.024" class="green_point" opacity="1.0"/>
<circle cx="387.589" cy="148.303" class="black_point" opacity="1.0"/>
<circle cx="367.884" cy="130.343" class="black_point" opacity="1.0"/>
<circle cx="333.033" cy="158.157" class="black_point" opacity="1.0"/>
<circle cx="350.289" cy="209.893" class="black_point" opacity="1.0"/>
<circle cx="440.841" cy="239.202" class="green_point" opacity="1.0"/>
<circle cx="459.044" cy="276.712" class="green_point" opacity="1.0"/>
<circle cx="377.265" cy="387.654" class="green_point" opacity="1.0"/>
<circle cx="359.309" cy="389.264" class="green_point" opacity="1.0"/>
<circle cx="324.313" cy="322.962" class="green_point" opacity="1.0"/>
<circle cx="375.018" cy="227.472" class="black_point" opacity="1.0"/>
<circle cx="347.494" cy="233.198" class="black_point" opacity="1.0"/>
<circle cx="249.989" cy="324.074" class="black_point" opacity="1.0"/>
<circle cx="313.384" cy="389.501" class="black_point" opacity="1.0"/>
<circle cx="420.215" cy="404.016" class="black_point" opacity="1.0"/>
<circle cx="435.442" cy="373.675" class="black_point" opacity="1.0"/>
<circle cx="436.351" cy="351.48" class="green_point" opacity="1.0"/>
<circle cx="467.519" cy="410.157" class="green_point" opacity="1.0"/>
<circle cx="450.385" cy="493.846" class="black_point" opacity="1.0"/>
<circle cx="510.539" cy="559.784" class="black_point" opacity="1.0"/>
<circle cx="248.232" cy="571.429" class="green_point" opacity="1.0"/>
<circle cx="162.189" cy="557.733" class="green_point" opacity="1.0"/>
<circle cx="175.27" cy="538.865" class="black_point" opacity="1.0"/>
<circle cx="154.517" cy="529.687" class="black_point" opacity="1.0"/>
<circle cx="30.354" cy="509.862" class="green_point" opacity="1.0"/>
<circle cx="77.978" cy="470.68" class="black_point" opacity="1.0"/>
<circle cx="148.268" cy="392.312" class="green_point" opacity="1.0"/>
<circle cx="178.417" cy="455.893" class="green_point" opacity="1.0"/>
<circle cx="194.268" cy="527.287" class="black_point" opacity="1.0"/>
<circle cx="204.518" cy="536.041" class="black_point" opacity="1.0"/>
<circle cx="459.575" cy="545.102" class="black_point" opacity="1.0"/>
<circle cx="269.529" cy="495.136" class="green_point" opacity="1.0"/>
<circle cx="388.267" cy="450.077" class="black_point" opacity="1.0"/>
<circle cx="341.46" cy="454.995" class="black_point" opacity="1.0"/>
<circle cx="284.11" cy="469.191" class="green_point" opacity="1.0"/>
<circle cx="275.494" cy="469.31" class="green_point" opacity="1.0"/>
<circle cx="238.499" cy="424.501" class="green_point" opacity="1.0"/>
<circle cx="245.105" cy="376.702" class="black_point" opacity="1.0"/>
<circle cx="212.938" cy="304.843" class="black_point" opacity="1.0"/>
<circle cx="199.197" cy="274.503" class="green_point" opacity="1.0"/>
<circle cx="275.703" cy="224.47" class="black_point" opacity="1.0"/>
<circle cx="212.171" cy="219.653" class="green_point" opacity="1.0"/>
<circle cx="211.532" cy="170.395" class="black_point" opacity="1.0"/>
<circle cx="162.455" cy="130.879" class="black_point" opacity="1.0"/>
<circle cx="113.011" cy="197.473" class="black_point" opacity="1.0"/>
<circle cx="166.109" cy="168.317" class="green_point" opacity="1.0"/>
<circle cx="174.495" cy="234.409" class="black_point" opacity="1.0"/>
<circle cx="189.091" cy="277.854" class="green_point" opacity="1.0"/>
</svg>