<svg xmlns="http://www.w3.org/2000/svg" width="600" height="600">
<polygon points="27.211,27.211 87.68,27.211 87.68,87.68 208.617,87.68 208.617,208.617 329.554,208.617 329.554,329.554 450.491,329.554 450.491,450.491 571.429,450.491 571.429,571.429 510.96,571.429 510.96,510.96 390.023,510.96 390.023,390.023 269.085,390.023 269.085,269.085 148.148,269.085 148.148,148.148 27.211,148.148" class="polygon" opacity="0.4"/>
<line x1="27.211" y1="148.148" x2="87.68" y2="27.211" class="edge_style" opacity="0.4"/>
<line x1="27.211" y1="148.148" x2="87.68" y2="87.68" class="edge_style" opacity="0.4"/>
<line x1="27.211" y1="148.148" x2="208.617" y2="87.68" class="edge_style" opacity="0.4"/>
<line x1="571.429" y1="450.491" x2="510.96" y2="571.429" class="edge_style" opacity="0.4"/>
<line x1="571.429" y1="450.491" x2="510.96" y2="510.96" class="edge_style" opacity="0.4"/>
<line x1="450.491" y1="450.491" x2="510.96" y2="510.96" class="edge_style" opacity="0.4"/>
<line x1="450.491" y1="450.491" x2="390.023" y2="510.96" class="edge_style" opacity="0.4"/>
<line x1="450.491" y1="329.554" x2="390.023" y2="510.96" class="edge_style" opacity="0.4"/>
<line x1="450.491" y1="329.554" x2="390.023" y2="390.023" class="edge_style" opacity="0.4"/>
<line x1="329.554" y1="329.554" x2="390.023" y2="390.023" class="edge_style" opacity="0.4"/>
<line x1="329.554" y1="329.554" x2="269.085" y2="390.023" class="edge_style" opacity="0.4"/>
<line x1="329.554" y1="208.617" x2="269.085" y2="390.023" class="edge_style" opacity="0.4"/>
<line x1="329.554" y1="208.617" x2="269.085" y2="269.085" class="edge_style" opacity="0.4"/>
<line x1="208.617" y1="208.617" x2="269.085" y2="269.085" class="edge_style" opacity="0.4"/>
<line x1="208.617" y1="208.617" x2="148.148" y2="269.085" class="edge_style" opacity="0.4"/>
<line x1="208.617" y1="87.68" x2="148.148" y2="269.085" class="edge_style" opacity="0.4"/>
<line x1="208.617" y1="87.68" x2="148.148" y2="148.148" class="edge_style" opacity="0.4"/>
<polygon points="208.617,87.68 208.617,208.617 329.554,208.617 269.085,269.085 148.148,269.085 148.148,148.148 27.211,148.148" class="polygon" opacity="1.0"/>
<line x1="329.55404383975815" y1="208.61678004535145" x2="148.14814814814812" y2="269.08541194255474" class="line_style"/><circle cx="208.617" cy="87.68" class="black_point" opacity="1.0"/>
<circle cx="208.617" cy="208.617" class="black_point" opacity="1.0"/>
<circle cx="329.554" cy="208.617" class="green_point" opacity="1.0"/>
<circle cx="269.085" cy="269.085" class="green_point" opacity="1.0"/>
<circle cx="148.148" cy="269.085" class="black_point" opacity="1.0"/>
<circle cx="148.148" cy="148.148" class="black_point" opacity="1.0"/>
<circle cx="27.211" cy="148.148" class="green_point" opacity="1.0"/>
</svg>