<svg xmlns="http://www.w3.org/2000/svg" width="600" height="600">
<polygon points="54.545,54.545 109.091,54.545 109.091,109.091 218.182,109.091 218.182,218.182 327.273,218.182 327.273,327.273 436.364,327.273 436.364,436.364 545.455,436.364 545.455,545.455 490.909,545.455 490.909,490.909 381.818,490.909 381.818,381.818 272.727,381.818 272.727,272.727 163.636,272.727 163.636,163.636 54.545,163.636" class="polygon" opacity="0.4"/>
<line x1="54.545" y1="163.636" x2="109.091" y2="54.545" class="edge_style" opacity="0.4"/>
<line x1="54.545" y1="163.636" x2="109.091" y2="109.091" class="edge_style" opacity="0.4"/>
<line x1="54.545" y1="163.636" x2="218.182" y2="109.091" class="edge_style" opacity="0.4"/>
<line x1="545.455" y1="436.364" x2="490.909" y2="545.455" class="edge_style" opacity="0.4"/>
<line x1="545.455" y1="436.364" x2="490.909" y2="490.909" class="edge_style" opacity="0.4"/>
<line x1="436.364" y1="436.364" x2="490.909" y2="490.909" class="edge_style" opacity="0.4"/>
<line x1="436.364" y1="436.364" x2="381.818" y2="490.909" class="edge_style" opacity="0.4"/>
<line x1="436.364" y1="327.273" x2="381.818" y2="490.909" class="edge_style" opacity="0.4"/>
<line x1="436.364" y1="327.273" x2="381.818" y2="381.818" class="edge_style" opacity="0.4"/>
<line x1="327.273" y1="327.273" x2="381.818" y2="381.818" class="edge_style" opacity="0.4"/>
<line x1="327.273" y1="327.273" x2="272.727" y2="381.818" class="edge_style" opacity="0.4"/>
<line x1="327.273" y1="218.182" x2="272.727" y2="381.818" class="edge_style" opacity="0.4"/>
<line x1="327.273" y1="218.182" x2="272.727" y2="272.727" class="edge_style" opacity="0.4"/>
<line x1="218.182" y1="218.182" x2="272.727" y2="272.727" class="edge_style" opacity="0.4"/>
<line x1="218.182" y1="218.182" x2="163.636" y2="272.727" class="edge_style" opacity="0.4"/>
<line x1="218.182" y1="109.091" x2="163.636" y2="272.727" class="edge_style" opacity="0.4"/>
<line x1="218.182" y1="109.091" x2="163.636" y2="163.636" class="edge_style" opacity="0.4"/>
<polygon points="218.182,109.091 218.182,218.182 327.273,218.182 272.727,272.727 163.636,272.727 163.636,163.636 54.545,163.636" class="polygon" opacity="1.0"/>
<line x1="327.27272727272725" y1="218.1818181818182" x2="163.63636363636363" y2="272.72727272727275" class="line_style"/><circle cx="218.182" cy="109.091" class="black_point" opacity="1.0"/>
<circle cx="218.182" cy="218.182" class="black_point" opacity="1.0"/>
<circle cx="327.273" cy="218.182" class="green_point" opacity="1.0"/>
<circle cx="272.727" cy="272.727" class="green_point" opacity="1.0"/>
<circle cx="163.636" cy="272.727" class="black_point" opacity="1.0"/>
<circle cx="163.636" cy="163.636" class="black_point" opacity="1.0"/>
<circle cx="54.545" cy="163.636" class="green_point" opacity="1.0"/>
</svg>