<svg xmlns="http://www.w3.org/2000/svg" width="700" height="700">
<polygon points="131.997,158.73 265.664,158.73 265.664,31.746 399.332,31.746 399.332,158.73 532.999,158.73 532.999,328.042 544.138,328.042 544.138,317.46 555.277,317.46 555.277,328.042 566.416,328.042 566.416,317.46 560.15,317.46 560.15,306.878 562.239,306.878 562.239,304.894 564.327,304.894 564.327,306.878 566.416,306.878 566.416,303.351 564.327,303.351 564.327,299.824 566.416,299.824 566.416,296.296 599.833,296.296 599.833,328.042 633.25,328.042 633.25,384.48 666.667,384.48 666.667,440.917 655.528,440.917 655.528,451.499 651.815,451.499 651.815,455.026 648.102,455.026 648.102,451.499 644.389,451.499 644.389,440.917 633.25,440.917 633.25,497.354 599.833,497.354 599.833,529.101 588.694,529.101 588.694,532.628 590.783,532.628 590.783,536.155 588.694,536.155 588.694,539.683 577.555,539.683 577.555,536.155 575.466,536.155 575.466,532.628 577.555,532.628 577.555,529.101 573.842,529.101 573.842,532.628 570.129,532.628 570.129,529.101 566.416,529.101 566.416,518.519 560.15,518.519 560.15,507.937 566.416,507.937 566.416,497.354 562.703,497.354 562.703,500.882 558.99,500.882 558.99,497.354 555.277,497.354 555.277,507.937 544.138,507.937 544.138,504.409 542.05,504.409 542.05,500.882 544.138,500.882 544.138,497.354 540.425,497.354 540.425,500.882 536.712,500.882 536.712,497.354 532.999,497.354 532.999,553.792 566.416,553.792 566.416,610.229 532.999,610.229 532.999,666.667 131.997,666.667 131.997,610.229 98.58,610.229 98.58,553.792 131.997,553.792 131.997,497.354 31.746,497.354 31.746,328.042 131.997,328.042 131.997,271.605 98.58,271.605 98.58,215.168 131.997,215.168" class="polygon" opacity="1.0"/>
<line x1="131.997" y1="215.168" x2="265.664" y2="158.73" class="edge_style" opacity="1.0"/>
<line x1="265.664" y1="158.73" x2="399.332" y2="31.746" class="edge_style" opacity="1.0"/>
<line x1="265.664" y1="158.73" x2="399.332" y2="158.73" class="edge_style" opacity="1.0"/>
<line x1="131.997" y1="215.168" x2="399.332" y2="158.73" class="edge_style" opacity="1.0"/>
<line x1="131.997" y1="215.168" x2="532.999" y2="158.73" class="edge_style" opacity="1.0"/>
<line x1="131.997" y1="215.168" x2="532.999" y2="328.042" class="edge_style" opacity="1.0"/>
<line x1="544.138" y1="328.042" x2="555.277" y2="317.46" class="edge_style" opacity="1.0"/>
<line x1="544.138" y1="328.042" x2="555.277" y2="328.042" class="edge_style" opacity="1.0"/>
<line x1="566.416" y1="317.46" x2="560.15" y2="306.878" class="edge_style" opacity="1.0"/>
<line x1="566.416" y1="317.46" x2="562.239" y2="306.878" class="edge_style" opacity="1.0"/>
<line x1="566.416" y1="317.46" x2="562.239" y2="304.894" class="edge_style" opacity="1.0"/>
<line x1="562.239" y1="304.894" x2="564.327" y2="306.878" class="edge_style" opacity="1.0"/>
<line x1="566.416" y1="317.46" x2="564.327" y2="306.878" class="edge_style" opacity="1.0"/>
<line x1="566.416" y1="317.46" x2="566.416" y2="306.878" class="edge_style" opacity="1.0"/>
<line x1="566.416" y1="303.351" x2="564.327" y2="299.824" class="edge_style" opacity="1.0"/>
<line x1="566.416" y1="303.351" x2="566.416" y2="299.824" class="edge_style" opacity="1.0"/>
<line x1="566.416" y1="299.824" x2="599.833" y2="296.296" class="edge_style" opacity="1.0"/>
<line x1="566.416" y1="303.351" x2="599.833" y2="296.296" class="edge_style" opacity="1.0"/>
<line x1="566.416" y1="306.878" x2="599.833" y2="296.296" class="edge_style" opacity="1.0"/>
<line x1="566.416" y1="317.46" x2="599.833" y2="296.296" class="edge_style" opacity="1.0"/>
<line x1="566.416" y1="328.042" x2="599.833" y2="296.296" class="edge_style" opacity="1.0"/>
<line x1="566.416" y1="328.042" x2="599.833" y2="328.042" class="edge_style" opacity="1.0"/>
<line x1="599.833" y1="328.042" x2="633.25" y2="384.48" class="edge_style" opacity="1.0"/>
<line x1="566.416" y1="328.042" x2="633.25" y2="384.48" class="edge_style" opacity="1.0"/>
<line x1="555.277" y1="328.042" x2="633.25" y2="384.48" class="edge_style" opacity="1.0"/>
<line x1="544.138" y1="328.042" x2="633.25" y2="384.48" class="edge_style" opacity="1.0"/>
<line x1="532.999" y1="328.042" x2="633.25" y2="384.48" class="edge_style" opacity="1.0"/>
<line x1="131.997" y1="215.168" x2="633.25" y2="384.48" class="edge_style" opacity="1.0"/>
<line x1="633.25" y1="384.48" x2="666.667" y2="440.917" class="edge_style" opacity="1.0"/>
<line x1="131.997" y1="215.168" x2="666.667" y2="440.917" class="edge_style" opacity="1.0"/>
<line x1="131.997" y1="215.168" x2="655.528" y2="440.917" class="edge_style" opacity="1.0"/>
<line x1="655.528" y1="440.917" x2="651.815" y2="451.499" class="edge_style" opacity="1.0"/>
<line x1="651.815" y1="451.499" x2="648.102" y2="455.026" class="edge_style" opacity="1.0"/>
<line x1="655.528" y1="440.917" x2="648.102" y2="455.026" class="edge_style" opacity="1.0"/>
<line x1="655.528" y1="440.917" x2="648.102" y2="451.499" class="edge_style" opacity="1.0"/>
<line x1="655.528" y1="440.917" x2="644.389" y2="451.499" class="edge_style" opacity="1.0"/>
<line x1="655.528" y1="440.917" x2="644.389" y2="440.917" class="edge_style" opacity="1.0"/>
<line x1="131.997" y1="215.168" x2="644.389" y2="440.917" class="edge_style" opacity="1.0"/>
<line x1="131.997" y1="215.168" x2="633.25" y2="440.917" class="edge_style" opacity="1.0"/>
<line x1="131.997" y1="215.168" x2="633.25" y2="497.354" class="edge_style" opacity="1.0"/>
<line x1="131.997" y1="215.168" x2="599.833" y2="497.354" class="edge_style" opacity="1.0"/>
<line x1="599.833" y1="497.354" x2="588.694" y2="529.101" class="edge_style" opacity="1.0"/>
<line x1="588.694" y1="532.628" x2="590.783" y2="536.155" class="edge_style" opacity="1.0"/>
<line x1="588.694" y1="532.628" x2="588.694" y2="536.155" class="edge_style" opacity="1.0"/>
<line x1="588.694" y1="536.155" x2="577.555" y2="539.683" class="edge_style" opacity="1.0"/>
<line x1="588.694" y1="532.628" x2="577.555" y2="539.683" class="edge_style" opacity="1.0"/>
<line x1="588.694" y1="529.101" x2="577.555" y2="539.683" class="edge_style" opacity="1.0"/>
<line x1="599.833" y1="497.354" x2="577.555" y2="539.683" class="edge_style" opacity="1.0"/>
<line x1="599.833" y1="497.354" x2="577.555" y2="536.155" class="edge_style" opacity="1.0"/>
<line x1="599.833" y1="497.354" x2="575.466" y2="536.155" class="edge_style" opacity="1.0"/>
<line x1="575.466" y1="536.155" x2="577.555" y2="532.628" class="edge_style" opacity="1.0"/>
<line x1="599.833" y1="497.354" x2="577.555" y2="532.628" class="edge_style" opacity="1.0"/>
<line x1="599.833" y1="497.354" x2="577.555" y2="529.101" class="edge_style" opacity="1.0"/>
<line x1="599.833" y1="497.354" x2="573.842" y2="529.101" class="edge_style" opacity="1.0"/>
<line x1="573.842" y1="529.101" x2="570.129" y2="532.628" class="edge_style" opacity="1.0"/>
<line x1="599.833" y1="497.354" x2="570.129" y2="532.628" class="edge_style" opacity="1.0"/>
<line x1="599.833" y1="497.354" x2="570.129" y2="529.101" class="edge_style" opacity="1.0"/>
<line x1="599.833" y1="497.354" x2="566.416" y2="529.101" class="edge_style" opacity="1.0"/>
<line x1="599.833" y1="497.354" x2="566.416" y2="518.519" class="edge_style" opacity="1.0"/>
<line x1="599.833" y1="497.354" x2="560.15" y2="518.519" class="edge_style" opacity="1.0"/>
<line x1="560.15" y1="518.519" x2="566.416" y2="507.937" class="edge_style" opacity="1.0"/>
<line x1="599.833" y1="497.354" x2="566.416" y2="507.937" class="edge_style" opacity="1.0"/>
<line x1="599.833" y1="497.354" x2="566.416" y2="497.354" class="edge_style" opacity="1.0"/>
<line x1="131.997" y1="215.168" x2="566.416" y2="497.354" class="edge_style" opacity="1.0"/>
<line x1="131.997" y1="215.168" x2="562.703" y2="497.354" class="edge_style" opacity="1.0"/>
<line x1="562.703" y1="497.354" x2="558.99" y2="500.882" class="edge_style" opacity="1.0"/>
<line x1="562.703" y1="497.354" x2="558.99" y2="497.354" class="edge_style" opacity="1.0"/>
<line x1="131.997" y1="215.168" x2="558.99" y2="497.354" class="edge_style" opacity="1.0"/>
<line x1="131.997" y1="215.168" x2="555.277" y2="497.354" class="edge_style" opacity="1.0"/>
<line x1="555.277" y1="497.354" x2="544.138" y2="507.937" class="edge_style" opacity="1.0"/>
<line x1="555.277" y1="497.354" x2="544.138" y2="504.409" class="edge_style" opacity="1.0"/>
<line x1="555.277" y1="497.354" x2="542.05" y2="504.409" class="edge_style" opacity="1.0"/>
<line x1="542.05" y1="504.409" x2="544.138" y2="500.882" class="edge_style" opacity="1.0"/>
<line x1="555.277" y1="497.354" x2="544.138" y2="500.882" class="edge_style" opacity="1.0"/>
<line x1="555.277" y1="497.354" x2="544.138" y2="497.354" class="edge_style" opacity="1.0"/>
<line x1="131.997" y1="215.168" x2="544.138" y2="497.354" class="edge_style" opacity="1.0"/>
<line x1="131.997" y1="215.168" x2="540.425" y2="497.354" class="edge_style" opacity="1.0"/>
<line x1="540.425" y1="497.354" x2="536.712" y2="500.882" class="edge_style" opacity="1.0"/>
<line x1="540.425" y1="497.354" x2="536.712" y2="497.354" class="edge_style" opacity="1.0"/>
<line x1="131.997" y1="215.168" x2="536.712" y2="497.354" class="edge_style" opacity="1.0"/>
<line x1="131.997" y1="215.168" x2="532.999" y2="497.354" class="edge_style" opacity="1.0"/>
<line x1="131.997" y1="215.168" x2="532.999" y2="553.792" class="edge_style" opacity="1.0"/>
<line x1="532.999" y1="553.792" x2="566.416" y2="610.229" class="edge_style" opacity="1.0"/>
<line x1="131.997" y1="215.168" x2="566.416" y2="610.229" class="edge_style" opacity="1.0"/>
<line x1="131.997" y1="215.168" x2="532.999" y2="610.229" class="edge_style" opacity="1.0"/>
<line x1="131.997" y1="215.168" x2="532.999" y2="666.667" class="edge_style" opacity="1.0"/>
<line x1="532.999" y1="666.667" x2="131.997" y2="610.229" class="edge_style" opacity="1.0"/>
<line x1="131.997" y1="610.229" x2="98.58" y2="553.792" class="edge_style" opacity="1.0"/>
<line x1="532.999" y1="666.667" x2="98.58" y2="553.792" class="edge_style" opacity="1.0"/>
<line x1="532.999" y1="666.667" x2="131.997" y2="553.792" class="edge_style" opacity="1.0"/>
<line x1="532.999" y1="666.667" x2="131.997" y2="497.354" class="edge_style" opacity="1.0"/>
<line x1="131.997" y1="497.354" x2="31.746" y2="328.042" class="edge_style" opacity="1.0"/>
<line x1="532.999" y1="666.667" x2="31.746" y2="328.042" class="edge_style" opacity="1.0"/>
<line x1="532.999" y1="666.667" x2="131.997" y2="328.042" class="edge_style" opacity="1.0"/>
<line x1="532.999" y1="666.667" x2="131.997" y2="271.605" class="edge_style" opacity="1.0"/>
<line x1="131.997" y1="215.168" x2="131.997" y2="271.605" class="edge_style" opacity="1.0"/>
<line x1="131.997" y1="215.168" x2="98.58" y2="271.605" class="edge_style" opacity="1.0"/>
<polygon points="655.528,440.917 651.815,451.499 648.102,455.026" class="highlight_polygon" opacity="1.0"/>
<circle cx="131.997" cy="158.73" class="red_point" opacity="1.0"/>
<circle cx="265.664" cy="158.73" class="green_point" opacity="1.0"/>
<circle cx="265.664" cy="31.746" class="red_point" opacity="1.0"/>
<circle cx="399.332" cy="31.746" class="blue_point" opacity="1.0"/>
<circle cx="399.332" cy="158.73" class="red_point" opacity="1.0"/>
<circle cx="532.999" cy="158.73" class="green_point" opacity="1.0"/>
<circle cx="532.999" cy="328.042" class="red_point" opacity="1.0"/>
<circle cx="544.138" cy="328.042" class="blue_point" opacity="1.0"/>
<circle cx="544.138" cy="317.46" class="red_point" opacity="1.0"/>
<circle cx="555.277" cy="317.46" class="green_point" opacity="1.0"/>
<circle cx="555.277" cy="328.042" class="red_point" opacity="1.0"/>
<circle cx="566.416" cy="328.042" class="blue_point" opacity="1.0"/>
<circle cx="566.416" cy="317.46" class="red_point" opacity="1.0"/>
<circle cx="560.15" cy="317.46" class="black_point" opacity="1.0"/>
<circle cx="560.15" cy="306.878" class="black_point" opacity="1.0"/>
<circle cx="562.239" cy="306.878" class="black_point" opacity="1.0"/>
<circle cx="562.239" cy="304.894" class="black_point" opacity="1.0"/>
<circle cx="564.327" cy="304.894" class="black_point" opacity="1.0"/>
<circle cx="564.327" cy="306.878" class="black_point" opacity="1.0"/>
<circle cx="566.416" cy="306.878" class="blue_point" opacity="1.0"/>
<circle cx="566.416" cy="303.351" class="black_point" opacity="1.0"/>
<circle cx="564.327" cy="303.351" class="black_point" opacity="1.0"/>
<circle cx="564.327" cy="299.824" class="black_point" opacity="1.0"/>
<circle cx="566.416" cy="299.824" class="black_point" opacity="1.0"/>
<circle cx="566.416" cy="296.296" class="black_point" opacity="1.0"/>
<circle cx="599.833" cy="296.296" class="green_point" opacity="1.0"/>
<circle cx="599.833" cy="328.042" class="red_point" opacity="1.0"/>
<circle cx="633.25" cy="328.042" class="blue_point" opacity="1.0"/>
<circle cx="633.25" cy="384.48" class="green_point" opacity="1.0"/>
<circle cx="666.667" cy="384.48" class="blue_point" opacity="1.0"/>
<circle cx="666.667" cy="440.917" class="red_point" opacity="1.0"/>
<circle cx="655.528" cy="440.917" class="green_point" opacity="1.0"/>
<circle cx="655.528" cy="451.499" class="black_point" opacity="1.0"/>
<circle cx="651.815" cy="451.499" class="black_point" opacity="1.0"/>
<circle cx="651.815" cy="455.026" class="black_point" opacity="1.0"/>
<circle cx="648.102" cy="455.026" class="blue_point" opacity="1.0"/>
<circle cx="648.102" cy="451.499" class="red_point" opacity="1.0"/>
<circle cx="644.389" cy="451.499" class="blue_point" opacity="1.0"/>
<circle cx="644.389" cy="440.917" class="red_point" opacity="1.0"/>
<circle cx="633.25" cy="440.917" class="green_point" opacity="1.0"/>
<circle cx="633.25" cy="497.354" class="red_point" opacity="1.0"/>
<circle cx="599.833" cy="497.354" class="green_point" opacity="1.0"/>
<circle cx="599.833" cy="529.101" class="black_point" opacity="1.0"/>
<circle cx="588.694" cy="529.101" class="black_point" opacity="1.0"/>
<circle cx="588.694" cy="532.628" class="black_point" opacity="1.0"/>
<circle cx="590.783" cy="532.628" class="black_point" opacity="1.0"/>
<circle cx="590.783" cy="536.155" class="black_point" opacity="1.0"/>
<circle cx="588.694" cy="536.155" class="black_point" opacity="1.0"/>
<circle cx="588.694" cy="539.683" class="black_point" opacity="1.0"/>
<circle cx="577.555" cy="539.683" class="black_point" opacity="1.0"/>
<circle cx="577.555" cy="536.155" class="black_point" opacity="1.0"/>
<circle cx="575.466" cy="536.155" class="black_point" opacity="1.0"/>
<circle cx="575.466" cy="532.628" class="black_point" opacity="1.0"/>
<circle cx="577.555" cy="532.628" class="black_point" opacity="1.0"/>
<circle cx="577.555" cy="529.101" class="black_point" opacity="1.0"/>
<circle cx="573.842" cy="529.101" class="black_point" opacity="1.0"/>
<circle cx="573.842" cy="532.628" class="black_point" opacity="1.0"/>
<circle cx="570.129" cy="532.628" class="black_point" opacity="1.0"/>
<circle cx="570.129" cy="529.101" class="black_point" opacity="1.0"/>
<circle cx="566.416" cy="529.101" class="black_point" opacity="1.0"/>
<circle cx="566.416" cy="518.519" class="black_point" opacity="1.0"/>
<circle cx="560.15" cy="518.519" class="black_point" opacity="1.0"/>
<circle cx="560.15" cy="507.937" class="black_point" opacity="1.0"/>
<circle cx="566.416" cy="507.937" class="black_point" opacity="1.0"/>
<circle cx="566.416" cy="497.354" class="black_point" opacity="1.0"/>
<circle cx="562.703" cy="497.354" class="black_point" opacity="1.0"/>
<circle cx="562.703" cy="500.882" class="black_point" opacity="1.0"/>
<circle cx="558.99" cy="500.882" class="black_point" opacity="1.0"/>
<circle cx="558.99" cy="497.354" class="black_point" opacity="1.0"/>
<circle cx="555.277" cy="497.354" class="black_point" opacity="1.0"/>
<circle cx="555.277" cy="507.937" class="black_point" opacity="1.0"/>
<circle cx="544.138" cy="507.937" class="black_point" opacity="1.0"/>
<circle cx="544.138" cy="504.409" class="black_point" opacity="1.0"/>
<circle cx="542.05" cy="504.409" class="black_point" opacity="1.0"/>
<circle cx="542.05" cy="500.882" class="black_point" opacity="1.0"/>
<circle cx="544.138" cy="500.882" class="black_point" opacity="1.0"/>
<circle cx="544.138" cy="497.354" class="black_point" opacity="1.0"/>
<circle cx="540.425" cy="497.354" class="black_point" opacity="1.0"/>
<circle cx="540.425" cy="500.882" class="black_point" opacity="1.0"/>
<circle cx="536.712" cy="500.882" class="black_point" opacity="1.0"/>
<circle cx="536.712" cy="497.354" class="black_point" opacity="1.0"/>
<circle cx="532.999" cy="497.354" class="black_point" opacity="1.0"/>
<circle cx="532.999" cy="553.792" class="black_point" opacity="1.0"/>
<circle cx="566.416" cy="553.792" class="black_point" opacity="1.0"/>
<circle cx="566.416" cy="610.229" class="black_point" opacity="1.0"/>
<circle cx="532.999" cy="610.229" class="black_point" opacity="1.0"/>
<circle cx="532.999" cy="666.667" class="black_point" opacity="1.0"/>
<circle cx="131.997" cy="666.667" class="black_point" opacity="1.0"/>
<circle cx="131.997" cy="610.229" class="black_point" opacity="1.0"/>
<circle cx="98.58" cy="610.229" class="black_point" opacity="1.0"/>
<circle cx="98.58" cy="553.792" class="black_point" opacity="1.0"/>
<circle cx="131.997" cy="553.792" class="black_point" opacity="1.0"/>
<circle cx="131.997" cy="497.354" class="black_point" opacity="1.0"/>
<circle cx="31.746" cy="497.354" class="black_point" opacity="1.0"/>
<circle cx="31.746" cy="328.042" class="black_point" opacity="1.0"/>
<circle cx="131.997" cy="328.042" class="black_point" opacity="1.0"/>
<circle cx="131.997" cy="271.605" class="black_point" opacity="1.0"/>
<circle cx="98.58" cy="271.605" class="black_point" opacity="1.0"/>
<circle cx="98.58" cy="215.168" class="black_point" opacity="1.0"/>
<circle cx="131.997" cy="215.168" class="blue_point" opacity="1.0"/>
</svg>