<svg xmlns="http://www.w3.org/2000/svg" width="500" height="500">
<polygon points="113.63636363636363,113.63636363636363 227.27272727272725,113.63636363636363 227.27272727272725,227.27272727272725 454.5454545454545,227.27272727272725 454.5454545454545,454.5454545454545 340.9090909090909,454.5454545454545 340.9090909090909,340.9090909090909 113.63636363636363,340.9090909090909" class="polygon" opacity="0.4"/>
<circle cx="113.63636363636363" cy="113.63636363636363" r="5" class="black_point opacity="0.4"/>
<circle cx="227.27272727272725" cy="113.63636363636363" r="5" class="black_point opacity="0.4"/>
<circle cx="227.27272727272725" cy="227.27272727272725" r="5" class="black_point opacity="0.4"/>
<circle cx="454.5454545454545" cy="227.27272727272725" r="5" class="black_point opacity="0.4"/>
<circle cx="454.5454545454545" cy="454.5454545454545" r="5" class="black_point opacity="0.4"/>
<circle cx="340.9090909090909" cy="454.5454545454545" r="5" class="black_point opacity="0.4"/>
<circle cx="340.9090909090909" cy="340.9090909090909" r="5" class="black_point opacity="0.4"/>
<circle cx="113.63636363636363" cy="340.9090909090909" r="5" class="black_point opacity="0.4"/>
<polygon points="454.5454545454545,227.27272727272725 340.9090909090909,340.9090909090909 113.63636363636363,340.9090909090909" class="polygon" opacity="1.0"/>
<circle cx="454.5454545454545" cy="227.27272727272725" r="5" class="black_point opacity="1.0"/>
<circle cx="340.9090909090909" cy="340.9090909090909" r="5" class="black_point opacity="1.0"/>
<circle cx="113.63636363636363" cy="340.9090909090909" r="5" class="black_point opacity="1.0"/>
<line x1="113.63636363636363" y1="340.9090909090909" x2="340.9090909090909" y2="340.9090909090909" class="line_style"/></svg>