<svg xmlns="http://www.w3.org/2000/svg" width="600" height="600">
<polygon points="137.098,315.07 158.965,337.528 55.066,412.897 12.18,389.661 71.091,167.127 15.916,171.906 26.024,153.797 59.239,95.084 45.449,67.656 69.878,75.368 80.456,73.697 153.646,98.925 179.206,84.06 208.145,120.907 269.74,156.68 218.897,78.841 177.263,69.306 359.551,92.393 362.988,92.014 403.237,91.451 400.238,74.219 454.719,169.866 499.351,315.661 485.245,306.513 474.825,301.271 467.892,314.708 527.078,348.883 532.888,222.168 515.293,234.096 480.905,179.676 499.713,115.19 452.078,65.459 476.421,56.069 442.626,63.753 372.956,51.601 286.473,23.636 212.586,26.528 381.22,16.72 476.853,12.175 520.451,35.421 533.036,85.52 539.042,135.294 544.716,303.697 540.678,455.911 511.006,513.309 496.076,535.036 446.06,485.934 473.462,468.181 465.776,324.094 440.118,188.784 435.907,213.677 398.207,109.552 412.471,206.012 364.823,130.833 345.54,113.233 311.438,140.489 328.324,191.185 416.931,219.905 434.743,256.662 354.72,365.373 337.15,366.951 302.905,301.981 352.522,208.41 325.588,214.022 230.176,303.071 292.21,367.184 396.748,381.407 411.648,351.675 412.538,329.926 443.037,387.424 426.27,469.432 485.133,534.044 228.457,545.455 144.261,532.034 157.061,513.545 136.754,504.552 15.255,485.125 61.858,446.731 130.638,369.938 160.14,432.241 175.651,502.2 185.681,510.778 435.263,519.657 249.296,470.695 365.486,426.542 319.683,431.361 263.565,445.272 255.134,445.388 218.933,401.48 225.397,354.641 193.921,284.226 180.474,254.497 255.338,205.469 193.169,200.749 192.545,152.481 144.521,113.759 96.139,179.015 148.096,150.444 156.302,215.208 170.585,257.78" class="polygon" opacity="0.4"/>
<circle cx="137.098" cy="315.07" class="black_point" opacity="0.4"/>
<circle cx="158.965" cy="337.528" class="black_point" opacity="0.4"/>
<circle cx="55.066" cy="412.897" class="black_point" opacity="0.4"/>
<circle cx="12.18" cy="389.661" class="black_point" opacity="0.4"/>
<circle cx="71.091" cy="167.127" class="black_point" opacity="0.4"/>
<circle cx="15.916" cy="171.906" class="black_point" opacity="0.4"/>
<circle cx="26.024" cy="153.797" class="black_point" opacity="0.4"/>
<circle cx="59.239" cy="95.084" class="black_point" opacity="0.4"/>
<circle cx="45.449" cy="67.656" class="black_point" opacity="0.4"/>
<circle cx="69.878" cy="75.368" class="black_point" opacity="0.4"/>
<circle cx="80.456" cy="73.697" class="black_point" opacity="0.4"/>
<circle cx="153.646" cy="98.925" class="black_point" opacity="0.4"/>
<circle cx="179.206" cy="84.06" class="black_point" opacity="0.4"/>
<circle cx="208.145" cy="120.907" class="black_point" opacity="0.4"/>
<circle cx="269.74" cy="156.68" class="black_point" opacity="0.4"/>
<circle cx="218.897" cy="78.841" class="black_point" opacity="0.4"/>
<circle cx="177.263" cy="69.306" class="black_point" opacity="0.4"/>
<circle cx="359.551" cy="92.393" class="black_point" opacity="0.4"/>
<circle cx="362.988" cy="92.014" class="black_point" opacity="0.4"/>
<circle cx="403.237" cy="91.451" class="black_point" opacity="0.4"/>
<circle cx="400.238" cy="74.219" class="black_point" opacity="0.4"/>
<circle cx="454.719" cy="169.866" class="black_point" opacity="0.4"/>
<circle cx="499.351" cy="315.661" class="black_point" opacity="0.4"/>
<circle cx="485.245" cy="306.513" class="black_point" opacity="0.4"/>
<circle cx="474.825" cy="301.271" class="black_point" opacity="0.4"/>
<circle cx="467.892" cy="314.708" class="black_point" opacity="0.4"/>
<circle cx="527.078" cy="348.883" class="black_point" opacity="0.4"/>
<circle cx="532.888" cy="222.168" class="black_point" opacity="0.4"/>
<circle cx="515.293" cy="234.096" class="black_point" opacity="0.4"/>
<circle cx="480.905" cy="179.676" class="black_point" opacity="0.4"/>
<circle cx="499.713" cy="115.19" class="black_point" opacity="0.4"/>
<circle cx="452.078" cy="65.459" class="black_point" opacity="0.4"/>
<circle cx="476.421" cy="56.069" class="black_point" opacity="0.4"/>
<circle cx="442.626" cy="63.753" class="black_point" opacity="0.4"/>
<circle cx="372.956" cy="51.601" class="black_point" opacity="0.4"/>
<circle cx="286.473" cy="23.636" class="black_point" opacity="0.4"/>
<circle cx="212.586" cy="26.528" class="black_point" opacity="0.4"/>
<circle cx="381.22" cy="16.72" class="black_point" opacity="0.4"/>
<circle cx="476.853" cy="12.175" class="black_point" opacity="0.4"/>
<circle cx="520.451" cy="35.421" class="black_point" opacity="0.4"/>
<circle cx="533.036" cy="85.52" class="black_point" opacity="0.4"/>
<circle cx="539.042" cy="135.294" class="black_point" opacity="0.4"/>
<circle cx="544.716" cy="303.697" class="black_point" opacity="0.4"/>
<circle cx="540.678" cy="455.911" class="black_point" opacity="0.4"/>
<circle cx="511.006" cy="513.309" class="black_point" opacity="0.4"/>
<circle cx="496.076" cy="535.036" class="black_point" opacity="0.4"/>
<circle cx="446.06" cy="485.934" class="black_point" opacity="0.4"/>
<circle cx="473.462" cy="468.181" class="black_point" opacity="0.4"/>
<circle cx="465.776" cy="324.094" class="black_point" opacity="0.4"/>
<circle cx="440.118" cy="188.784" class="black_point" opacity="0.4"/>
<circle cx="435.907" cy="213.677" class="black_point" opacity="0.4"/>
<circle cx="398.207" cy="109.552" class="black_point" opacity="0.4"/>
<circle cx="412.471" cy="206.012" class="black_point" opacity="0.4"/>
<circle cx="364.823" cy="130.833" class="black_point" opacity="0.4"/>
<circle cx="345.54" cy="113.233" class="black_point" opacity="0.4"/>
<circle cx="311.438" cy="140.489" class="black_point" opacity="0.4"/>
<circle cx="328.324" cy="191.185" class="black_point" opacity="0.4"/>
<circle cx="416.931" cy="219.905" class="black_point" opacity="0.4"/>
<circle cx="434.743" cy="256.662" class="black_point" opacity="0.4"/>
<circle cx="354.72" cy="365.373" class="black_point" opacity="0.4"/>
<circle cx="337.15" cy="366.951" class="black_point" opacity="0.4"/>
<circle cx="302.905" cy="301.981" class="black_point" opacity="0.4"/>
<circle cx="352.522" cy="208.41" class="black_point" opacity="0.4"/>
<circle cx="325.588" cy="214.022" class="black_point" opacity="0.4"/>
<circle cx="230.176" cy="303.071" class="black_point" opacity="0.4"/>
<circle cx="292.21" cy="367.184" class="black_point" opacity="0.4"/>
<circle cx="396.748" cy="381.407" class="black_point" opacity="0.4"/>
<circle cx="411.648" cy="351.675" class="black_point" opacity="0.4"/>
<circle cx="412.538" cy="329.926" class="black_point" opacity="0.4"/>
<circle cx="443.037" cy="387.424" class="black_point" opacity="0.4"/>
<circle cx="426.27" cy="469.432" class="black_point" opacity="0.4"/>
<circle cx="485.133" cy="534.044" class="black_point" opacity="0.4"/>
<circle cx="228.457" cy="545.455" class="black_point" opacity="0.4"/>
<circle cx="144.261" cy="532.034" class="black_point" opacity="0.4"/>
<circle cx="157.061" cy="513.545" class="black_point" opacity="0.4"/>
<circle cx="136.754" cy="504.552" class="black_point" opacity="0.4"/>
<circle cx="15.255" cy="485.125" class="black_point" opacity="0.4"/>
<circle cx="61.858" cy="446.731" class="black_point" opacity="0.4"/>
<circle cx="130.638" cy="369.938" class="black_point" opacity="0.4"/>
<circle cx="160.14" cy="432.241" class="black_point" opacity="0.4"/>
<circle cx="175.651" cy="502.2" class="black_point" opacity="0.4"/>
<circle cx="185.681" cy="510.778" class="black_point" opacity="0.4"/>
<circle cx="435.263" cy="519.657" class="black_point" opacity="0.4"/>
<circle cx="249.296" cy="470.695" class="black_point" opacity="0.4"/>
<circle cx="365.486" cy="426.542" class="black_point" opacity="0.4"/>
<circle cx="319.683" cy="431.361" class="black_point" opacity="0.4"/>
<circle cx="263.565" cy="445.272" class="black_point" opacity="0.4"/>
<circle cx="255.134" cy="445.388" class="black_point" opacity="0.4"/>
<circle cx="218.933" cy="401.48" class="black_point" opacity="0.4"/>
<circle cx="225.397" cy="354.641" class="black_point" opacity="0.4"/>
<circle cx="193.921" cy="284.226" class="black_point" opacity="0.4"/>
<circle cx="180.474" cy="254.497" class="black_point" opacity="0.4"/>
<circle cx="255.338" cy="205.469" class="black_point" opacity="0.4"/>
<circle cx="193.169" cy="200.749" class="black_point" opacity="0.4"/>
<circle cx="192.545" cy="152.481" class="black_point" opacity="0.4"/>
<circle cx="144.521" cy="113.759" class="black_point" opacity="0.4"/>
<circle cx="96.139" cy="179.015" class="black_point" opacity="0.4"/>
<circle cx="148.096" cy="150.444" class="black_point" opacity="0.4"/>
<circle cx="156.302" cy="215.208" class="black_point" opacity="0.4"/>
<circle cx="170.585" cy="257.78" class="black_point" opacity="0.4"/>
<line x1="137.098" y1="315.07" x2="55.066" y2="412.897" class="edge_style" opacity="0.4"/>
<line x1="170.585" y1="257.78" x2="55.066" y2="412.897" class="edge_style" opacity="0.4"/>
<line x1="170.585" y1="257.78" x2="12.18" y2="389.661" class="edge_style" opacity="0.4"/>
<line x1="170.585" y1="257.78" x2="71.091" y2="167.127" class="edge_style" opacity="0.4"/>
<line x1="71.091" y1="167.127" x2="26.024" y2="153.797" class="edge_style" opacity="0.4"/>
<line x1="71.091" y1="167.127" x2="59.239" y2="95.084" class="edge_style" opacity="0.4"/>
<line x1="59.239" y1="95.084" x2="69.878" y2="75.368" class="edge_style" opacity="0.4"/>
<line x1="71.091" y1="167.127" x2="69.878" y2="75.368" class="edge_style" opacity="0.4"/>
<line x1="71.091" y1="167.127" x2="80.456" y2="73.697" class="edge_style" opacity="0.4"/>
<line x1="71.091" y1="167.127" x2="153.646" y2="98.925" class="edge_style" opacity="0.4"/>
<line x1="71.091" y1="167.127" x2="179.206" y2="84.06" class="edge_style" opacity="0.4"/>
<line x1="218.897" y1="78.841" x2="359.551" y2="92.393" class="edge_style" opacity="0.4"/>
<line x1="269.74" y1="156.68" x2="359.551" y2="92.393" class="edge_style" opacity="0.4"/>
<line x1="269.74" y1="156.68" x2="362.988" y2="92.014" class="edge_style" opacity="0.4"/>
<line x1="403.237" y1="91.451" x2="454.719" y2="169.866" class="edge_style" opacity="0.4"/>
<line x1="403.237" y1="91.451" x2="499.351" y2="315.661" class="edge_style" opacity="0.4"/>
<line x1="403.237" y1="91.451" x2="485.245" y2="306.513" class="edge_style" opacity="0.4"/>
<line x1="532.888" y1="222.168" x2="480.905" y2="179.676" class="edge_style" opacity="0.4"/>
<line x1="532.888" y1="222.168" x2="499.713" y2="115.19" class="edge_style" opacity="0.4"/>
<line x1="499.713" y1="115.19" x2="476.421" y2="56.069" class="edge_style" opacity="0.4"/>
<line x1="476.421" y1="56.069" x2="372.956" y2="51.601" class="edge_style" opacity="0.4"/>
<line x1="476.421" y1="56.069" x2="286.473" y2="23.636" class="edge_style" opacity="0.4"/>
<line x1="286.473" y1="23.636" x2="381.22" y2="16.72" class="edge_style" opacity="0.4"/>
<line x1="476.421" y1="56.069" x2="381.22" y2="16.72" class="edge_style" opacity="0.4"/>
<line x1="476.421" y1="56.069" x2="476.853" y2="12.175" class="edge_style" opacity="0.4"/>
<line x1="499.713" y1="115.19" x2="476.853" y2="12.175" class="edge_style" opacity="0.4"/>
<line x1="532.888" y1="222.168" x2="476.853" y2="12.175" class="edge_style" opacity="0.4"/>
<line x1="532.888" y1="222.168" x2="520.451" y2="35.421" class="edge_style" opacity="0.4"/>
<line x1="532.888" y1="222.168" x2="533.036" y2="85.52" class="edge_style" opacity="0.4"/>
<line x1="532.888" y1="222.168" x2="539.042" y2="135.294" class="edge_style" opacity="0.4"/>
<line x1="527.078" y1="348.883" x2="539.042" y2="135.294" class="edge_style" opacity="0.4"/>
<line x1="527.078" y1="348.883" x2="544.716" y2="303.697" class="edge_style" opacity="0.4"/>
<line x1="527.078" y1="348.883" x2="540.678" y2="455.911" class="edge_style" opacity="0.4"/>
<line x1="467.892" y1="314.708" x2="540.678" y2="455.911" class="edge_style" opacity="0.4"/>
<line x1="467.892" y1="314.708" x2="511.006" y2="513.309" class="edge_style" opacity="0.4"/>
<line x1="467.892" y1="314.708" x2="496.076" y2="535.036" class="edge_style" opacity="0.4"/>
<line x1="496.076" y1="535.036" x2="473.462" y2="468.181" class="edge_style" opacity="0.4"/>
<line x1="467.892" y1="314.708" x2="473.462" y2="468.181" class="edge_style" opacity="0.4"/>
<line x1="467.892" y1="314.708" x2="465.776" y2="324.094" class="edge_style" opacity="0.4"/>
<line x1="467.892" y1="314.708" x2="440.118" y2="188.784" class="edge_style" opacity="0.4"/>
<line x1="474.825" y1="301.271" x2="440.118" y2="188.784" class="edge_style" opacity="0.4"/>
<line x1="485.245" y1="306.513" x2="440.118" y2="188.784" class="edge_style" opacity="0.4"/>
<line x1="403.237" y1="91.451" x2="440.118" y2="188.784" class="edge_style" opacity="0.4"/>
<line x1="403.237" y1="91.451" x2="435.907" y2="213.677" class="edge_style" opacity="0.4"/>
<line x1="403.237" y1="91.451" x2="398.207" y2="109.552" class="edge_style" opacity="0.4"/>
<line x1="362.988" y1="92.014" x2="398.207" y2="109.552" class="edge_style" opacity="0.4"/>
<line x1="362.988" y1="92.014" x2="412.471" y2="206.012" class="edge_style" opacity="0.4"/>
<line x1="362.988" y1="92.014" x2="364.823" y2="130.833" class="edge_style" opacity="0.4"/>
<line x1="362.988" y1="92.014" x2="345.54" y2="113.233" class="edge_style" opacity="0.4"/>
<line x1="269.74" y1="156.68" x2="345.54" y2="113.233" class="edge_style" opacity="0.4"/>
<line x1="269.74" y1="156.68" x2="311.438" y2="140.489" class="edge_style" opacity="0.4"/>
<line x1="269.74" y1="156.68" x2="328.324" y2="191.185" class="edge_style" opacity="0.4"/>
<line x1="208.145" y1="120.907" x2="328.324" y2="191.185" class="edge_style" opacity="0.4"/>
<line x1="328.324" y1="191.185" x2="434.743" y2="256.662" class="edge_style" opacity="0.4"/>
<line x1="208.145" y1="120.907" x2="434.743" y2="256.662" class="edge_style" opacity="0.4"/>
<line x1="434.743" y1="256.662" x2="337.15" y2="366.951" class="edge_style" opacity="0.4"/>
<line x1="434.743" y1="256.662" x2="302.905" y2="301.981" class="edge_style" opacity="0.4"/>
<line x1="434.743" y1="256.662" x2="352.522" y2="208.41" class="edge_style" opacity="0.4"/>
<line x1="208.145" y1="120.907" x2="352.522" y2="208.41" class="edge_style" opacity="0.4"/>
<line x1="208.145" y1="120.907" x2="325.588" y2="214.022" class="edge_style" opacity="0.4"/>
<line x1="411.648" y1="351.675" x2="443.037" y2="387.424" class="edge_style" opacity="0.4"/>
<line x1="396.748" y1="381.407" x2="443.037" y2="387.424" class="edge_style" opacity="0.4"/>
<line x1="396.748" y1="381.407" x2="426.27" y2="469.432" class="edge_style" opacity="0.4"/>
<line x1="292.21" y1="367.184" x2="426.27" y2="469.432" class="edge_style" opacity="0.4"/>
<line x1="485.133" y1="534.044" x2="144.261" y2="532.034" class="edge_style" opacity="0.4"/>
<line x1="485.133" y1="534.044" x2="157.061" y2="513.545" class="edge_style" opacity="0.4"/>
<line x1="136.754" y1="504.552" x2="61.858" y2="446.731" class="edge_style" opacity="0.4"/>
<line x1="157.061" y1="513.545" x2="61.858" y2="446.731" class="edge_style" opacity="0.4"/>
<line x1="157.061" y1="513.545" x2="130.638" y2="369.938" class="edge_style" opacity="0.4"/>
<line x1="157.061" y1="513.545" x2="160.14" y2="432.241" class="edge_style" opacity="0.4"/>
<line x1="157.061" y1="513.545" x2="175.651" y2="502.2" class="edge_style" opacity="0.4"/>
<line x1="157.061" y1="513.545" x2="185.681" y2="510.778" class="edge_style" opacity="0.4"/>
<line x1="485.133" y1="534.044" x2="185.681" y2="510.778" class="edge_style" opacity="0.4"/>
<line x1="485.133" y1="534.044" x2="435.263" y2="519.657" class="edge_style" opacity="0.4"/>
<line x1="426.27" y1="469.432" x2="435.263" y2="519.657" class="edge_style" opacity="0.4"/>
<line x1="426.27" y1="469.432" x2="249.296" y2="470.695" class="edge_style" opacity="0.4"/>
<line x1="426.27" y1="469.432" x2="365.486" y2="426.542" class="edge_style" opacity="0.4"/>
<line x1="292.21" y1="367.184" x2="365.486" y2="426.542" class="edge_style" opacity="0.4"/>
<line x1="292.21" y1="367.184" x2="319.683" y2="431.361" class="edge_style" opacity="0.4"/>
<line x1="230.176" y1="303.071" x2="319.683" y2="431.361" class="edge_style" opacity="0.4"/>
<line x1="230.176" y1="303.071" x2="263.565" y2="445.272" class="edge_style" opacity="0.4"/>
<line x1="230.176" y1="303.071" x2="255.134" y2="445.388" class="edge_style" opacity="0.4"/>
<line x1="255.134" y1="445.388" x2="225.397" y2="354.641" class="edge_style" opacity="0.4"/>
<line x1="230.176" y1="303.071" x2="225.397" y2="354.641" class="edge_style" opacity="0.4"/>
<line x1="230.176" y1="303.071" x2="193.921" y2="284.226" class="edge_style" opacity="0.4"/>
<line x1="325.588" y1="214.022" x2="193.921" y2="284.226" class="edge_style" opacity="0.4"/>
<line x1="325.588" y1="214.022" x2="180.474" y2="254.497" class="edge_style" opacity="0.4"/>
<line x1="325.588" y1="214.022" x2="255.338" y2="205.469" class="edge_style" opacity="0.4"/>
<line x1="208.145" y1="120.907" x2="255.338" y2="205.469" class="edge_style" opacity="0.4"/>
<line x1="179.206" y1="84.06" x2="255.338" y2="205.469" class="edge_style" opacity="0.4"/>
<line x1="255.338" y1="205.469" x2="192.545" y2="152.481" class="edge_style" opacity="0.4"/>
<line x1="179.206" y1="84.06" x2="192.545" y2="152.481" class="edge_style" opacity="0.4"/>
<line x1="179.206" y1="84.06" x2="144.521" y2="113.759" class="edge_style" opacity="0.4"/>
<line x1="71.091" y1="167.127" x2="144.521" y2="113.759" class="edge_style" opacity="0.4"/>
<line x1="71.091" y1="167.127" x2="96.139" y2="179.015" class="edge_style" opacity="0.4"/>
<line x1="170.585" y1="257.78" x2="96.139" y2="179.015" class="edge_style" opacity="0.4"/>
<line x1="96.139" y1="179.015" x2="156.302" y2="215.208" class="edge_style" opacity="0.4"/>
<polygon points="71.091,167.127 179.206,84.06 208.145,120.907 269.74,156.68 362.988,92.014 403.237,91.451 485.245,306.513 474.825,301.271 467.892,314.708 527.078,348.883 539.042,135.294 544.716,303.697 540.678,455.911 511.006,513.309 496.076,535.036 446.06,485.934 473.462,468.181 465.776,324.094 440.118,188.784 435.907,213.677 398.207,109.552 412.471,206.012 364.823,130.833 345.54,113.233 311.438,140.489 328.324,191.185 416.931,219.905 434.743,256.662 354.72,365.373 337.15,366.951 302.905,301.981 352.522,208.41 325.588,214.022 230.176,303.071 292.21,367.184 396.748,381.407 411.648,351.675 412.538,329.926 443.037,387.424 426.27,469.432 485.133,534.044 228.457,545.455 144.261,532.034 157.061,513.545 136.754,504.552 15.255,485.125 61.858,446.731 130.638,369.938 160.14,432.241 175.651,502.2 185.681,510.778 435.263,519.657 249.296,470.695 365.486,426.542 319.683,431.361 263.565,445.272 255.134,445.388 218.933,401.48 225.397,354.641 193.921,284.226 180.474,254.497 255.338,205.469 193.169,200.749 192.545,152.481 144.521,113.759 96.139,179.015 148.096,150.444 156.302,215.208 170.585,257.78" class="polygon" opacity="1.0"/>
<circle cx="71.091" cy="167.127" class="black_point" opacity="1.0"/>
<circle cx="179.206" cy="84.06" class="black_point" opacity="1.0"/>
<circle cx="208.145" cy="120.907" class="black_point" opacity="1.0"/>
<circle cx="269.74" cy="156.68" class="black_point" opacity="1.0"/>
<circle cx="362.988" cy="92.014" class="black_point" opacity="1.0"/>
<circle cx="403.237" cy="91.451" class="black_point" opacity="1.0"/>
<circle cx="485.245" cy="306.513" class="black_point" opacity="1.0"/>
<circle cx="474.825" cy="301.271" class="black_point" opacity="1.0"/>
<circle cx="467.892" cy="314.708" class="black_point" opacity="1.0"/>
<circle cx="527.078" cy="348.883" class="black_point" opacity="1.0"/>
<circle cx="539.042" cy="135.294" class="green_point" opacity="1.0"/>
<circle cx="544.716" cy="303.697" class="green_point" opacity="1.0"/>
<circle cx="540.678" cy="455.911" class="green_point" opacity="1.0"/>
<circle cx="511.006" cy="513.309" class="green_point" opacity="1.0"/>
<circle cx="496.076" cy="535.036" class="green_point" opacity="1.0"/>
<circle cx="446.06" cy="485.934" class="green_point" opacity="1.0"/>
<circle cx="473.462" cy="468.181" class="black_point" opacity="1.0"/>
<circle cx="465.776" cy="324.094" class="black_point" opacity="1.0"/>
<circle cx="440.118" cy="188.784" class="black_point" opacity="1.0"/>
<circle cx="435.907" cy="213.677" class="green_point" opacity="1.0"/>
<circle cx="398.207" cy="109.552" class="black_point" opacity="1.0"/>
<circle cx="412.471" cy="206.012" class="green_point" opacity="1.0"/>
<circle cx="364.823" cy="130.833" class="black_point" opacity="1.0"/>
<circle cx="345.54" cy="113.233" class="black_point" opacity="1.0"/>
<circle cx="311.438" cy="140.489" class="black_point" opacity="1.0"/>
<circle cx="328.324" cy="191.185" class="black_point" opacity="1.0"/>
<circle cx="416.931" cy="219.905" class="green_point" opacity="1.0"/>
<circle cx="434.743" cy="256.662" class="green_point" opacity="1.0"/>
<circle cx="354.72" cy="365.373" class="green_point" opacity="1.0"/>
<circle cx="337.15" cy="366.951" class="green_point" opacity="1.0"/>
<circle cx="302.905" cy="301.981" class="green_point" opacity="1.0"/>
<circle cx="352.522" cy="208.41" class="black_point" opacity="1.0"/>
<circle cx="325.588" cy="214.022" class="black_point" opacity="1.0"/>
<circle cx="230.176" cy="303.071" class="black_point" opacity="1.0"/>
<circle cx="292.21" cy="367.184" class="black_point" opacity="1.0"/>
<circle cx="396.748" cy="381.407" class="black_point" opacity="1.0"/>
<circle cx="411.648" cy="351.675" class="black_point" opacity="1.0"/>
<circle cx="412.538" cy="329.926" class="green_point" opacity="1.0"/>
<circle cx="443.037" cy="387.424" class="green_point" opacity="1.0"/>
<circle cx="426.27" cy="469.432" class="black_point" opacity="1.0"/>
<circle cx="485.133" cy="534.044" class="black_point" opacity="1.0"/>
<circle cx="228.457" cy="545.455" class="green_point" opacity="1.0"/>
<circle cx="144.261" cy="532.034" class="green_point" opacity="1.0"/>
<circle cx="157.061" cy="513.545" class="black_point" opacity="1.0"/>
<circle cx="136.754" cy="504.552" class="black_point" opacity="1.0"/>
<circle cx="15.255" cy="485.125" class="green_point" opacity="1.0"/>
<circle cx="61.858" cy="446.731" class="black_point" opacity="1.0"/>
<circle cx="130.638" cy="369.938" class="green_point" opacity="1.0"/>
<circle cx="160.14" cy="432.241" class="green_point" opacity="1.0"/>
<circle cx="175.651" cy="502.2" class="black_point" opacity="1.0"/>
<circle cx="185.681" cy="510.778" class="black_point" opacity="1.0"/>
<circle cx="435.263" cy="519.657" class="black_point" opacity="1.0"/>
<circle cx="249.296" cy="470.695" class="green_point" opacity="1.0"/>
<circle cx="365.486" cy="426.542" class="black_point" opacity="1.0"/>
<circle cx="319.683" cy="431.361" class="black_point" opacity="1.0"/>
<circle cx="263.565" cy="445.272" class="green_point" opacity="1.0"/>
<circle cx="255.134" cy="445.388" class="green_point" opacity="1.0"/>
<circle cx="218.933" cy="401.48" class="green_point" opacity="1.0"/>
<circle cx="225.397" cy="354.641" class="black_point" opacity="1.0"/>
<circle cx="193.921" cy="284.226" class="black_point" opacity="1.0"/>
<circle cx="180.474" cy="254.497" class="green_point" opacity="1.0"/>
<circle cx="255.338" cy="205.469" class="black_point" opacity="1.0"/>
<circle cx="193.169" cy="200.749" class="green_point" opacity="1.0"/>
<circle cx="192.545" cy="152.481" class="black_point" opacity="1.0"/>
<circle cx="144.521" cy="113.759" class="black_point" opacity="1.0"/>
<circle cx="96.139" cy="179.015" class="black_point" opacity="1.0"/>
<circle cx="148.096" cy="150.444" class="green_point" opacity="1.0"/>
<circle cx="156.302" cy="215.208" class="black_point" opacity="1.0"/>
<circle cx="170.585" cy="257.78" class="green_point" opacity="1.0"/>
<line x1="527.0781110247904" y1="348.8826514166185" x2="544.7157994077656" y2="303.6974111776796" class="line_style"/></svg>