<svg xmlns="http://www.w3.org/2000/svg" width="500" height="500">
<polygon points="114.2480901136461,262.55847714956496 132.47117966099668,281.2734061485684 45.88802622286156,344.0811014452331 10.149967690645289,324.71761871514417 59.242171785990564,139.27273323262366 13.263106970991272,143.2551443062892 21.68701762338275,128.16452061956016 49.36577471852801,79.23652530561984 37.87411632460257,56.379922752162464 58.231653921239996,62.80700236551946 67.04656057303289,61.41446281873107 128.03833756363318,82.43782129272196 149.3383102905512,70.04994528464594 173.45390975846502,100.75555873479735 224.78361821781343,130.56632336885045 182.4139801047899,65.70115391567707 147.71952239644546,57.75487894037461 299.62577684245576,76.99413867347285 302.48982543824326,76.67827417797669 336.03050343490264,76.20945897399874 333.5315322399177,61.84931856714361 378.9327116812322,141.55524701957913 416.1261420398451,263.051139044276 404.3705189248106,255.42763222135326 395.6873960913274,251.059091408312 389.90983194353186,262.2562979319221 439.2317591873253,290.7355428471821 444.0730299168785,185.14038237675797 429.4105784852777,195.07971879111258 400.75412349399033,149.73000046016776 416.42712127231823,95.99154152034615 376.7313445005584,54.549571360438875 397.01764659503715,46.72411193983115 368.8546069195029,53.127280206289484 310.79677932400926,43.000653383106744 238.72788975179014,19.696780057955106 177.15504904840685,22.106699338952286 317.6829303948203,13.933702217614211 397.37714776537825,10.14543157206961 433.70931371611823,29.517890698498512 444.1963749621416,71.26631923314305 449.2017222502016,112.74524590097316 453.9298328398047,253.08117598139967 450.56516714616686,379.9259985739039 425.8387032942663,427.7575508895898 413.3965934450151,445.8636882440629 371.717077988009,404.94473137091495 394.5516531629683,390.1508056805882 388.14660092810936,270.0785652921875 366.7647990669623,157.32028544834668 363.2557887954884,178.06378958471356 331.83938807984237,91.29312744522984 343.7256187283477,171.67665833419588 304.018958723107,109.0277041110421 287.95023215563594,94.36120324923745 259.5316374263699,117.07435726368092 273.60295000982796,159.32094076444244 347.4427457624898,183.25444019597236 362.2861496355097,213.88468513891058 295.60020330845884,304.4777640715837 280.95812875600353,305.792212691582 252.4207059734674,251.65119739626934 293.76806524442947,173.67536107567028 271.323008748252,178.35137397233441 191.81319533570843,252.55949448691302 243.50865062625547,305.9863470906714 330.62348023785086,317.8392112076765 343.0401517320482,293.06250764403273 343.7813234453156,274.93837591735195 369.19754945872825,322.85347751232825 355.2250044696006,391.19295517104524 404.27765770239154,445.0368352612217 190.38099037476678,454.5454545454545 120.2172437855375,443.36176739738215 130.88420696621228,427.95449668844543 113.96154188785582,420.4601134256494 12.712869904258238,404.2712461392184 51.54805149064369,372.27602742108104 108.86524998570657,308.2818995938243 133.45029250846682,360.2006278006856 146.37599451004928,418.5000677947813 154.734567092595,425.64836843241915 362.719387524499,433.0475665929923 207.74687887359008,392.2462369563541 304.571380378226,355.45191434720385 266.4026125932592,359.46775203478717 219.6373820264654,371.0601195790896 212.61151480294546,371.1570368844369 182.44430280696403,334.5665861839708 187.8308139914052,295.5345789635648 161.60051716566272,236.85540104299088 150.39522571078675,212.0808502593944 212.7814189401587,171.22444022239688 160.97455400777815,167.29112500766718 160.45407748800457,127.06759363560316 120.43443839859331,94.7993394144888 80.11546641810868,149.1789297239041 123.41343380663666,125.37019257583925 130.25192101744625,179.34020665810002 142.15435707897947,214.81663432809762" class="polygon" opacity="0.2"/>
<circle cx="114.2480901136461" cy="262.55847714956496" r="5" class="vertex_color0" opacity="0.2"/>
<circle cx="132.47117966099668" cy="281.2734061485684" r="5" class="vertex_color0" opacity="0.2"/>
<circle cx="45.88802622286156" cy="344.0811014452331" r="5" class="vertex_color0" opacity="0.2"/>
<circle cx="10.149967690645289" cy="324.71761871514417" r="5" class="vertex_color0" opacity="0.2"/>
<circle cx="59.242171785990564" cy="139.27273323262366" r="5" class="vertex_color0" opacity="0.2"/>
<circle cx="13.263106970991272" cy="143.2551443062892" r="5" class="vertex_color0" opacity="0.2"/>
<circle cx="21.68701762338275" cy="128.16452061956016" r="5" class="vertex_color0" opacity="0.2"/>
<circle cx="49.36577471852801" cy="79.23652530561984" r="5" class="vertex_color0" opacity="0.2"/>
<circle cx="37.87411632460257" cy="56.379922752162464" r="5" class="vertex_color0" opacity="0.2"/>
<circle cx="58.231653921239996" cy="62.80700236551946" r="5" class="vertex_color0" opacity="0.2"/>
<circle cx="67.04656057303289" cy="61.41446281873107" r="5" class="vertex_color0" opacity="0.2"/>
<circle cx="128.03833756363318" cy="82.43782129272196" r="5" class="vertex_color0" opacity="0.2"/>
<circle cx="149.3383102905512" cy="70.04994528464594" r="5" class="vertex_color0" opacity="0.2"/>
<circle cx="173.45390975846502" cy="100.75555873479735" r="5" class="vertex_color0" opacity="0.2"/>
<circle cx="224.78361821781343" cy="130.56632336885045" r="5" class="vertex_color0" opacity="0.2"/>
<circle cx="182.4139801047899" cy="65.70115391567707" r="5" class="vertex_color0" opacity="0.2"/>
<circle cx="147.71952239644546" cy="57.75487894037461" r="5" class="vertex_color0" opacity="0.2"/>
<circle cx="299.62577684245576" cy="76.99413867347285" r="5" class="vertex_color0" opacity="0.2"/>
<circle cx="302.48982543824326" cy="76.67827417797669" r="5" class="vertex_color0" opacity="0.2"/>
<circle cx="336.03050343490264" cy="76.20945897399874" r="5" class="vertex_color0" opacity="0.2"/>
<circle cx="333.5315322399177" cy="61.84931856714361" r="5" class="vertex_color0" opacity="0.2"/>
<circle cx="378.9327116812322" cy="141.55524701957913" r="5" class="vertex_color0" opacity="0.2"/>
<circle cx="416.1261420398451" cy="263.051139044276" r="5" class="vertex_color0" opacity="0.2"/>
<circle cx="404.3705189248106" cy="255.42763222135326" r="5" class="vertex_color0" opacity="0.2"/>
<circle cx="395.6873960913274" cy="251.059091408312" r="5" class="vertex_color0" opacity="0.2"/>
<circle cx="389.90983194353186" cy="262.2562979319221" r="5" class="vertex_color0" opacity="0.2"/>
<circle cx="439.2317591873253" cy="290.7355428471821" r="5" class="vertex_color0" opacity="0.2"/>
<circle cx="444.0730299168785" cy="185.14038237675797" r="5" class="vertex_color0" opacity="0.2"/>
<circle cx="429.4105784852777" cy="195.07971879111258" r="5" class="vertex_color0" opacity="0.2"/>
<circle cx="400.75412349399033" cy="149.73000046016776" r="5" class="vertex_color0" opacity="0.2"/>
<circle cx="416.42712127231823" cy="95.99154152034615" r="5" class="vertex_color0" opacity="0.2"/>
<circle cx="376.7313445005584" cy="54.549571360438875" r="5" class="vertex_color0" opacity="0.2"/>
<circle cx="397.01764659503715" cy="46.72411193983115" r="5" class="vertex_color0" opacity="0.2"/>
<circle cx="368.8546069195029" cy="53.127280206289484" r="5" class="vertex_color0" opacity="0.2"/>
<circle cx="310.79677932400926" cy="43.000653383106744" r="5" class="vertex_color0" opacity="0.2"/>
<circle cx="238.72788975179014" cy="19.696780057955106" r="5" class="vertex_color0" opacity="0.2"/>
<circle cx="177.15504904840685" cy="22.106699338952286" r="5" class="vertex_color0" opacity="0.2"/>
<circle cx="317.6829303948203" cy="13.933702217614211" r="5" class="vertex_color0" opacity="0.2"/>
<circle cx="397.37714776537825" cy="10.14543157206961" r="5" class="vertex_color0" opacity="0.2"/>
<circle cx="433.70931371611823" cy="29.517890698498512" r="5" class="vertex_color0" opacity="0.2"/>
<circle cx="444.1963749621416" cy="71.26631923314305" r="5" class="vertex_color0" opacity="0.2"/>
<circle cx="449.2017222502016" cy="112.74524590097316" r="5" class="vertex_color0" opacity="0.2"/>
<circle cx="453.9298328398047" cy="253.08117598139967" r="5" class="vertex_color0" opacity="0.2"/>
<circle cx="450.56516714616686" cy="379.9259985739039" r="5" class="vertex_color0" opacity="0.2"/>
<circle cx="425.8387032942663" cy="427.7575508895898" r="5" class="vertex_color0" opacity="0.2"/>
<circle cx="413.3965934450151" cy="445.8636882440629" r="5" class="vertex_color0" opacity="0.2"/>
<circle cx="371.717077988009" cy="404.94473137091495" r="5" class="vertex_color0" opacity="0.2"/>
<circle cx="394.5516531629683" cy="390.1508056805882" r="5" class="vertex_color0" opacity="0.2"/>
<circle cx="388.14660092810936" cy="270.0785652921875" r="5" class="vertex_color0" opacity="0.2"/>
<circle cx="366.7647990669623" cy="157.32028544834668" r="5" class="vertex_color0" opacity="0.2"/>
<circle cx="363.2557887954884" cy="178.06378958471356" r="5" class="vertex_color0" opacity="0.2"/>
<circle cx="331.83938807984237" cy="91.29312744522984" r="5" class="vertex_color0" opacity="0.2"/>
<circle cx="343.7256187283477" cy="171.67665833419588" r="5" class="vertex_color0" opacity="0.2"/>
<circle cx="304.018958723107" cy="109.0277041110421" r="5" class="vertex_color0" opacity="0.2"/>
<circle cx="287.95023215563594" cy="94.36120324923745" r="5" class="vertex_color0" opacity="0.2"/>
<circle cx="259.5316374263699" cy="117.07435726368092" r="5" class="vertex_color0" opacity="0.2"/>
<circle cx="273.60295000982796" cy="159.32094076444244" r="5" class="vertex_color0" opacity="0.2"/>
<circle cx="347.4427457624898" cy="183.25444019597236" r="5" class="vertex_color0" opacity="0.2"/>
<circle cx="362.2861496355097" cy="213.88468513891058" r="5" class="vertex_color0" opacity="0.2"/>
<circle cx="295.60020330845884" cy="304.4777640715837" r="5" class="vertex_color0" opacity="0.2"/>
<circle cx="280.95812875600353" cy="305.792212691582" r="5" class="vertex_color0" opacity="0.2"/>
<circle cx="252.4207059734674" cy="251.65119739626934" r="5" class="vertex_color0" opacity="0.2"/>
<circle cx="293.76806524442947" cy="173.67536107567028" r="5" class="vertex_color0" opacity="0.2"/>
<circle cx="271.323008748252" cy="178.35137397233441" r="5" class="vertex_color0" opacity="0.2"/>
<circle cx="191.81319533570843" cy="252.55949448691302" r="5" class="vertex_color0" opacity="0.2"/>
<circle cx="243.50865062625547" cy="305.9863470906714" r="5" class="vertex_color0" opacity="0.2"/>
<circle cx="330.62348023785086" cy="317.8392112076765" r="5" class="vertex_color0" opacity="0.2"/>
<circle cx="343.0401517320482" cy="293.06250764403273" r="5" class="vertex_color0" opacity="0.2"/>
<circle cx="343.7813234453156" cy="274.93837591735195" r="5" class="vertex_color0" opacity="0.2"/>
<circle cx="369.19754945872825" cy="322.85347751232825" r="5" class="vertex_color0" opacity="0.2"/>
<circle cx="355.2250044696006" cy="391.19295517104524" r="5" class="vertex_color0" opacity="0.2"/>
<circle cx="404.27765770239154" cy="445.0368352612217" r="5" class="vertex_color0" opacity="0.2"/>
<circle cx="190.38099037476678" cy="454.5454545454545" r="5" class="vertex_color0" opacity="0.2"/>
<circle cx="120.2172437855375" cy="443.36176739738215" r="5" class="vertex_color0" opacity="0.2"/>
<circle cx="130.88420696621228" cy="427.95449668844543" r="5" class="vertex_color0" opacity="0.2"/>
<circle cx="113.96154188785582" cy="420.4601134256494" r="5" class="vertex_color0" opacity="0.2"/>
<circle cx="12.712869904258238" cy="404.2712461392184" r="5" class="vertex_color0" opacity="0.2"/>
<circle cx="51.54805149064369" cy="372.27602742108104" r="5" class="vertex_color0" opacity="0.2"/>
<circle cx="108.86524998570657" cy="308.2818995938243" r="5" class="vertex_color0" opacity="0.2"/>
<circle cx="133.45029250846682" cy="360.2006278006856" r="5" class="vertex_color0" opacity="0.2"/>
<circle cx="146.37599451004928" cy="418.5000677947813" r="5" class="vertex_color0" opacity="0.2"/>
<circle cx="154.734567092595" cy="425.64836843241915" r="5" class="vertex_color0" opacity="0.2"/>
<circle cx="362.719387524499" cy="433.0475665929923" r="5" class="vertex_color0" opacity="0.2"/>
<circle cx="207.74687887359008" cy="392.2462369563541" r="5" class="vertex_color0" opacity="0.2"/>
<circle cx="304.571380378226" cy="355.45191434720385" r="5" class="vertex_color0" opacity="0.2"/>
<circle cx="266.4026125932592" cy="359.46775203478717" r="5" class="vertex_color0" opacity="0.2"/>
<circle cx="219.6373820264654" cy="371.0601195790896" r="5" class="vertex_color0" opacity="0.2"/>
<circle cx="212.61151480294546" cy="371.1570368844369" r="5" class="vertex_color0" opacity="0.2"/>
<circle cx="182.44430280696403" cy="334.5665861839708" r="5" class="vertex_color0" opacity="0.2"/>
<circle cx="187.8308139914052" cy="295.5345789635648" r="5" class="vertex_color0" opacity="0.2"/>
<circle cx="161.60051716566272" cy="236.85540104299088" r="5" class="vertex_color0" opacity="0.2"/>
<circle cx="150.39522571078675" cy="212.0808502593944" r="5" class="vertex_color0" opacity="0.2"/>
<circle cx="212.7814189401587" cy="171.22444022239688" r="5" class="vertex_color0" opacity="0.2"/>
<circle cx="160.97455400777815" cy="167.29112500766718" r="5" class="vertex_color0" opacity="0.2"/>
<circle cx="160.45407748800457" cy="127.06759363560316" r="5" class="vertex_color0" opacity="0.2"/>
<circle cx="120.43443839859331" cy="94.7993394144888" r="5" class="vertex_color0" opacity="0.2"/>
<circle cx="80.11546641810868" cy="149.1789297239041" r="5" class="vertex_color0" opacity="0.2"/>
<circle cx="123.41343380663666" cy="125.37019257583925" r="5" class="vertex_color0" opacity="0.2"/>
<circle cx="130.25192101744625" cy="179.34020665810002" r="5" class="vertex_color0" opacity="0.2"/>
<circle cx="142.15435707897947" cy="214.81663432809762" r="5" class="vertex_color0" opacity="0.2"/>
<line x1="114.2480901136461" y1="262.55847714956496" x2="45.88802622286156" y2="344.0811014452331" class="edge_style" opacity="0.2"/>
<line x1="114.2480901136461" y1="262.55847714956496" x2="45.88802622286156" y2="344.0811014452331" class="edge_style" opacity="0.2"/>
<line x1="45.88802622286156" y1="344.0811014452331" x2="10.149967690645289" y2="324.71761871514417" class="edge_style" opacity="0.2"/>
<line x1="10.149967690645289" y1="324.71761871514417" x2="59.242171785990564" y2="139.27273323262366" class="edge_style" opacity="0.2"/>
<line x1="59.242171785990564" y1="139.27273323262366" x2="21.68701762338275" y2="128.16452061956016" class="edge_style" opacity="0.2"/>
<line x1="59.242171785990564" y1="139.27273323262366" x2="49.36577471852801" y2="79.23652530561984" class="edge_style" opacity="0.2"/>
<line x1="49.36577471852801" y1="79.23652530561984" x2="58.231653921239996" y2="62.80700236551946" class="edge_style" opacity="0.2"/>
<line x1="59.242171785990564" y1="139.27273323262366" x2="58.231653921239996" y2="62.80700236551946" class="edge_style" opacity="0.2"/>
<line x1="59.242171785990564" y1="139.27273323262366" x2="67.04656057303289" y2="61.41446281873107" class="edge_style" opacity="0.2"/>
<line x1="59.242171785990564" y1="139.27273323262366" x2="128.03833756363318" y2="82.43782129272196" class="edge_style" opacity="0.2"/>
<line x1="59.242171785990564" y1="139.27273323262366" x2="149.3383102905512" y2="70.04994528464594" class="edge_style" opacity="0.2"/>
<line x1="182.4139801047899" y1="65.70115391567707" x2="299.62577684245576" y2="76.99413867347285" class="edge_style" opacity="0.2"/>
<line x1="224.78361821781343" y1="130.56632336885045" x2="299.62577684245576" y2="76.99413867347285" class="edge_style" opacity="0.2"/>
<line x1="224.78361821781343" y1="130.56632336885045" x2="302.48982543824326" y2="76.67827417797669" class="edge_style" opacity="0.2"/>
<line x1="336.03050343490264" y1="76.20945897399874" x2="378.9327116812322" y2="141.55524701957913" class="edge_style" opacity="0.2"/>
<line x1="336.03050343490264" y1="76.20945897399874" x2="416.1261420398451" y2="263.051139044276" class="edge_style" opacity="0.2"/>
<line x1="336.03050343490264" y1="76.20945897399874" x2="404.3705189248106" y2="255.42763222135326" class="edge_style" opacity="0.2"/>
<line x1="444.0730299168785" y1="185.14038237675797" x2="400.75412349399033" y2="149.73000046016776" class="edge_style" opacity="0.2"/>
<line x1="444.0730299168785" y1="185.14038237675797" x2="416.42712127231823" y2="95.99154152034615" class="edge_style" opacity="0.2"/>
<line x1="416.42712127231823" y1="95.99154152034615" x2="397.01764659503715" y2="46.72411193983115" class="edge_style" opacity="0.2"/>
<line x1="397.01764659503715" y1="46.72411193983115" x2="310.79677932400926" y2="43.000653383106744" class="edge_style" opacity="0.2"/>
<line x1="397.01764659503715" y1="46.72411193983115" x2="238.72788975179014" y2="19.696780057955106" class="edge_style" opacity="0.2"/>
<line x1="238.72788975179014" y1="19.696780057955106" x2="317.6829303948203" y2="13.933702217614211" class="edge_style" opacity="0.2"/>
<line x1="397.01764659503715" y1="46.72411193983115" x2="317.6829303948203" y2="13.933702217614211" class="edge_style" opacity="0.2"/>
<line x1="397.01764659503715" y1="46.72411193983115" x2="397.37714776537825" y2="10.14543157206961" class="edge_style" opacity="0.2"/>
<line x1="416.42712127231823" y1="95.99154152034615" x2="397.37714776537825" y2="10.14543157206961" class="edge_style" opacity="0.2"/>
<line x1="444.0730299168785" y1="185.14038237675797" x2="397.37714776537825" y2="10.14543157206961" class="edge_style" opacity="0.2"/>
<line x1="444.0730299168785" y1="185.14038237675797" x2="433.70931371611823" y2="29.517890698498512" class="edge_style" opacity="0.2"/>
<line x1="444.0730299168785" y1="185.14038237675797" x2="444.1963749621416" y2="71.26631923314305" class="edge_style" opacity="0.2"/>
<line x1="444.0730299168785" y1="185.14038237675797" x2="449.2017222502016" y2="112.74524590097316" class="edge_style" opacity="0.2"/>
<line x1="439.2317591873253" y1="290.7355428471821" x2="449.2017222502016" y2="112.74524590097316" class="edge_style" opacity="0.2"/>
<line x1="439.2317591873253" y1="290.7355428471821" x2="453.9298328398047" y2="253.08117598139967" class="edge_style" opacity="0.2"/>
<line x1="439.2317591873253" y1="290.7355428471821" x2="450.56516714616686" y2="379.9259985739039" class="edge_style" opacity="0.2"/>
<line x1="389.90983194353186" y1="262.2562979319221" x2="450.56516714616686" y2="379.9259985739039" class="edge_style" opacity="0.2"/>
<line x1="389.90983194353186" y1="262.2562979319221" x2="425.8387032942663" y2="427.7575508895898" class="edge_style" opacity="0.2"/>
<line x1="389.90983194353186" y1="262.2562979319221" x2="413.3965934450151" y2="445.8636882440629" class="edge_style" opacity="0.2"/>
<line x1="413.3965934450151" y1="445.8636882440629" x2="394.5516531629683" y2="390.1508056805882" class="edge_style" opacity="0.2"/>
<line x1="389.90983194353186" y1="262.2562979319221" x2="394.5516531629683" y2="390.1508056805882" class="edge_style" opacity="0.2"/>
<line x1="389.90983194353186" y1="262.2562979319221" x2="388.14660092810936" y2="270.0785652921875" class="edge_style" opacity="0.2"/>
<line x1="389.90983194353186" y1="262.2562979319221" x2="366.7647990669623" y2="157.32028544834668" class="edge_style" opacity="0.2"/>
<line x1="395.6873960913274" y1="251.059091408312" x2="366.7647990669623" y2="157.32028544834668" class="edge_style" opacity="0.2"/>
<line x1="404.3705189248106" y1="255.42763222135326" x2="366.7647990669623" y2="157.32028544834668" class="edge_style" opacity="0.2"/>
<line x1="336.03050343490264" y1="76.20945897399874" x2="366.7647990669623" y2="157.32028544834668" class="edge_style" opacity="0.2"/>
<line x1="336.03050343490264" y1="76.20945897399874" x2="363.2557887954884" y2="178.06378958471356" class="edge_style" opacity="0.2"/>
<line x1="336.03050343490264" y1="76.20945897399874" x2="331.83938807984237" y2="91.29312744522984" class="edge_style" opacity="0.2"/>
<line x1="302.48982543824326" y1="76.67827417797669" x2="331.83938807984237" y2="91.29312744522984" class="edge_style" opacity="0.2"/>
<line x1="302.48982543824326" y1="76.67827417797669" x2="343.7256187283477" y2="171.67665833419588" class="edge_style" opacity="0.2"/>
<line x1="302.48982543824326" y1="76.67827417797669" x2="304.018958723107" y2="109.0277041110421" class="edge_style" opacity="0.2"/>
<line x1="302.48982543824326" y1="76.67827417797669" x2="287.95023215563594" y2="94.36120324923745" class="edge_style" opacity="0.2"/>
<line x1="224.78361821781343" y1="130.56632336885045" x2="287.95023215563594" y2="94.36120324923745" class="edge_style" opacity="0.2"/>
<line x1="224.78361821781343" y1="130.56632336885045" x2="259.5316374263699" y2="117.07435726368092" class="edge_style" opacity="0.2"/>
<line x1="224.78361821781343" y1="130.56632336885045" x2="273.60295000982796" y2="159.32094076444244" class="edge_style" opacity="0.2"/>
<line x1="173.45390975846502" y1="100.75555873479735" x2="273.60295000982796" y2="159.32094076444244" class="edge_style" opacity="0.2"/>
<line x1="273.60295000982796" y1="159.32094076444244" x2="362.2861496355097" y2="213.88468513891058" class="edge_style" opacity="0.2"/>
<line x1="173.45390975846502" y1="100.75555873479735" x2="362.2861496355097" y2="213.88468513891058" class="edge_style" opacity="0.2"/>
<line x1="362.2861496355097" y1="213.88468513891058" x2="280.95812875600353" y2="305.792212691582" class="edge_style" opacity="0.2"/>
<line x1="362.2861496355097" y1="213.88468513891058" x2="252.4207059734674" y2="251.65119739626934" class="edge_style" opacity="0.2"/>
<line x1="362.2861496355097" y1="213.88468513891058" x2="293.76806524442947" y2="173.67536107567028" class="edge_style" opacity="0.2"/>
<line x1="173.45390975846502" y1="100.75555873479735" x2="293.76806524442947" y2="173.67536107567028" class="edge_style" opacity="0.2"/>
<line x1="173.45390975846502" y1="100.75555873479735" x2="271.323008748252" y2="178.35137397233441" class="edge_style" opacity="0.2"/>
<line x1="343.0401517320482" y1="293.06250764403273" x2="369.19754945872825" y2="322.85347751232825" class="edge_style" opacity="0.2"/>
<line x1="330.62348023785086" y1="317.8392112076765" x2="369.19754945872825" y2="322.85347751232825" class="edge_style" opacity="0.2"/>
<line x1="330.62348023785086" y1="317.8392112076765" x2="355.2250044696006" y2="391.19295517104524" class="edge_style" opacity="0.2"/>
<line x1="243.50865062625547" y1="305.9863470906714" x2="355.2250044696006" y2="391.19295517104524" class="edge_style" opacity="0.2"/>
<line x1="404.27765770239154" y1="445.0368352612217" x2="120.2172437855375" y2="443.36176739738215" class="edge_style" opacity="0.2"/>
<line x1="404.27765770239154" y1="445.0368352612217" x2="130.88420696621228" y2="427.95449668844543" class="edge_style" opacity="0.2"/>
<line x1="113.96154188785582" y1="420.4601134256494" x2="51.54805149064369" y2="372.27602742108104" class="edge_style" opacity="0.2"/>
<line x1="130.88420696621228" y1="427.95449668844543" x2="51.54805149064369" y2="372.27602742108104" class="edge_style" opacity="0.2"/>
<line x1="130.88420696621228" y1="427.95449668844543" x2="108.86524998570657" y2="308.2818995938243" class="edge_style" opacity="0.2"/>
<line x1="130.88420696621228" y1="427.95449668844543" x2="133.45029250846682" y2="360.2006278006856" class="edge_style" opacity="0.2"/>
<line x1="130.88420696621228" y1="427.95449668844543" x2="146.37599451004928" y2="418.5000677947813" class="edge_style" opacity="0.2"/>
<line x1="130.88420696621228" y1="427.95449668844543" x2="154.734567092595" y2="425.64836843241915" class="edge_style" opacity="0.2"/>
<line x1="404.27765770239154" y1="445.0368352612217" x2="154.734567092595" y2="425.64836843241915" class="edge_style" opacity="0.2"/>
<line x1="404.27765770239154" y1="445.0368352612217" x2="362.719387524499" y2="433.0475665929923" class="edge_style" opacity="0.2"/>
<line x1="355.2250044696006" y1="391.19295517104524" x2="362.719387524499" y2="433.0475665929923" class="edge_style" opacity="0.2"/>
<line x1="355.2250044696006" y1="391.19295517104524" x2="207.74687887359008" y2="392.2462369563541" class="edge_style" opacity="0.2"/>
<line x1="355.2250044696006" y1="391.19295517104524" x2="304.571380378226" y2="355.45191434720385" class="edge_style" opacity="0.2"/>
<line x1="243.50865062625547" y1="305.9863470906714" x2="304.571380378226" y2="355.45191434720385" class="edge_style" opacity="0.2"/>
<line x1="243.50865062625547" y1="305.9863470906714" x2="266.4026125932592" y2="359.46775203478717" class="edge_style" opacity="0.2"/>
<line x1="191.81319533570843" y1="252.55949448691302" x2="266.4026125932592" y2="359.46775203478717" class="edge_style" opacity="0.2"/>
<line x1="191.81319533570843" y1="252.55949448691302" x2="219.6373820264654" y2="371.0601195790896" class="edge_style" opacity="0.2"/>
<line x1="191.81319533570843" y1="252.55949448691302" x2="212.61151480294546" y2="371.1570368844369" class="edge_style" opacity="0.2"/>
<line x1="212.61151480294546" y1="371.1570368844369" x2="187.8308139914052" y2="295.5345789635648" class="edge_style" opacity="0.2"/>
<line x1="191.81319533570843" y1="252.55949448691302" x2="187.8308139914052" y2="295.5345789635648" class="edge_style" opacity="0.2"/>
<line x1="191.81319533570843" y1="252.55949448691302" x2="161.60051716566272" y2="236.85540104299088" class="edge_style" opacity="0.2"/>
<line x1="271.323008748252" y1="178.35137397233441" x2="161.60051716566272" y2="236.85540104299088" class="edge_style" opacity="0.2"/>
<line x1="271.323008748252" y1="178.35137397233441" x2="150.39522571078675" y2="212.0808502593944" class="edge_style" opacity="0.2"/>
<line x1="271.323008748252" y1="178.35137397233441" x2="212.7814189401587" y2="171.22444022239688" class="edge_style" opacity="0.2"/>
<line x1="173.45390975846502" y1="100.75555873479735" x2="212.7814189401587" y2="171.22444022239688" class="edge_style" opacity="0.2"/>
<line x1="149.3383102905512" y1="70.04994528464594" x2="212.7814189401587" y2="171.22444022239688" class="edge_style" opacity="0.2"/>
<line x1="212.7814189401587" y1="171.22444022239688" x2="160.45407748800457" y2="127.06759363560316" class="edge_style" opacity="0.2"/>
<line x1="149.3383102905512" y1="70.04994528464594" x2="160.45407748800457" y2="127.06759363560316" class="edge_style" opacity="0.2"/>
<line x1="149.3383102905512" y1="70.04994528464594" x2="120.43443839859331" y2="94.7993394144888" class="edge_style" opacity="0.2"/>
<line x1="59.242171785990564" y1="139.27273323262366" x2="120.43443839859331" y2="94.7993394144888" class="edge_style" opacity="0.2"/>
<line x1="59.242171785990564" y1="139.27273323262366" x2="80.11546641810868" y2="149.1789297239041" class="edge_style" opacity="0.2"/>
<line x1="59.242171785990564" y1="139.27273323262366" x2="80.11546641810868" y2="149.1789297239041" class="edge_style" opacity="0.2"/>
<polygon points="59.242171785990564,139.27273323262366 149.3383102905512,70.04994528464594 173.45390975846502,100.75555873479735 271.323008748252,178.35137397233441 191.81319533570843,252.55949448691302 212.61151480294546,371.1570368844369 187.8308139914052,295.5345789635648 161.60051716566272,236.85540104299088 150.39522571078675,212.0808502593944 212.7814189401587,171.22444022239688 160.97455400777815,167.29112500766718 160.45407748800457,127.06759363560316 120.43443839859331,94.7993394144888 80.11546641810868,149.1789297239041 123.41343380663666,125.37019257583925 130.25192101744625,179.34020665810002 142.15435707897947,214.81663432809762" class="polygon"/>
<circle cx="59.242171785990564" cy="139.27273323262366" r="5" class="black_point"/>
<circle cx="149.3383102905512" cy="70.04994528464594" r="5" class="black_point"/>
<circle cx="173.45390975846502" cy="100.75555873479735" r="5" class="black_point"/>
<circle cx="271.323008748252" cy="178.35137397233441" r="5" class="black_point"/>
<circle cx="191.81319533570843" cy="252.55949448691302" r="5" class="black_point"/>
<circle cx="212.61151480294546" cy="371.1570368844369" r="5" class="red_point"/>
<circle cx="187.8308139914052" cy="295.5345789635648" r="5" class="red_point"/>
<circle cx="161.60051716566272" cy="236.85540104299088" r="5" class="red_point"/>
<circle cx="150.39522571078675" cy="212.0808502593944" r="5" class="blue_point"/>
<circle cx="212.7814189401587" cy="171.22444022239688" r="5" class="black_point"/>
<circle cx="160.97455400777815" cy="167.29112500766718" r="5" class="blue_point"/>
<circle cx="160.45407748800457" cy="127.06759363560316" r="5" class="black_point"/>
<circle cx="120.43443839859331" cy="94.7993394144888" r="5" class="black_point"/>
<circle cx="80.11546641810868" cy="149.1789297239041" r="5" class="black_point"/>
<circle cx="123.41343380663666" cy="125.37019257583925" r="5" class="blue_point"/>
<circle cx="130.25192101744625" cy="179.34020665810002" r="5" class="black_point"/>
<circle cx="142.15435707897947" cy="214.81663432809762" r="5" class="blue_point"/>
<line x1="212.61151480294546" y1="371.1570368844369" x2="161.60051716566272" y2="236.85540104299088" class="line_style"/>
</svg>