<svg xmlns="http://www.w3.org/2000/svg" width="400" height="400">
<polygon points="63.97488817572594,147.0234574470669 74.17917355895042,157.50315552111715 25.695671089924872,192.6732426462695 5.683622783981264,181.83037742972374 33.17352011334151,77.98780290875584 7.426870632916689,80.21781220566481 12.143962546251714,71.76759687252343 27.6430871989578,44.36965065076947 21.208165092393756,31.570761925540864 32.6076658628881,35.16969910822809 37.543701701797545,34.389926232397556 71.69693882577121,46.16226313635707 83.62416992429644,39.225490875542164 97.12805237621069,56.41954799182713 125.87087298277766,73.11252143234015 102.1453747479245,36.79032157640904 82.71770597901195,32.34068874269724 167.77983377221972,43.11399347614497 169.3835996510461,42.93712053447962 188.16519260406494,42.67460060771555 186.76585715264082,34.63343006558716 212.18891127035022,79.26592987030745 233.01591630559415,147.2993306769058 226.43318329472095,143.03043658845127 221.57094173133373,140.58420829940587 218.3357102284208,146.85424777679145 245.954244392924,162.80161728616804 248.66518470924348,103.67206355556846 240.4547306895256,109.2377402773127 224.40812980756164,83.84350256063044 233.184454026632,53.75186691060662 210.9562235372141,30.54582990705967 222.3158349469304,26.163849509321153 206.54552918393165,29.74939718376845 174.03519991319627,24.078844459727407 133.67917167022824,11.029499927535653 99.20055942609906,12.378969457931817 177.89120086934417,7.802380244247615 222.51714288257062,5.681082718074322 242.8618703223765,16.528974398970604 248.73425357043743,39.90661724936217 251.5370709542185,63.133348589763045 254.18464559596032,141.71650411561131 252.30055185500532,212.74511678609997 238.45460696145892,239.52909372281283 231.48746566846967,249.66789001598954 208.148411703296,226.75472194794565 220.93496587593108,218.47064699511975 217.3483632458374,151.23444073367864 205.37531072739512,88.09379359707236 203.41038913000375,99.70942197367549 185.81831629388034,51.12092126626521 192.47418490238488,96.1328544607386 170.23986018728465,61.05165672022849 161.24194184783846,52.838935162872076 145.32853429671377,65.55749778170139 153.20797147694975,89.21408978756517 194.55564452335238,102.61600266210735 202.86742550786585,119.76785608101636 165.52565502468497,170.4967749491334 157.32661133632064,171.23281966894865 141.34666427969933,140.9157667029649 164.499722532928,97.25205727852881 151.93128503859043,99.87045905552804 107.40860271733254,141.42438093665987 136.35622860863805,171.34152806364 185.13745092321187,177.97871259506792 192.09034763742238,164.1046352405101 192.50537757296115,153.955762735568 206.737564872019,180.7865243125707 198.9134340500459,219.05421383678913 226.38118429575115,249.2048816010356 106.60661861300468,254.52937196940184 67.31740303337574,248.26690286397934 73.29052499961108,239.63937640190125 63.81443130783737,235.44278693851084 7.11875734385103,226.377594047226 28.865084978751838,208.46140360925347 60.96068815793842,172.62695624493062 74.72744211088866,201.6996070696041 81.9653778988868,234.3452307349071 86.64588280487806,238.34802617318928 203.110023397021,242.49131534714252 116.33090173825622,219.64401436969638 170.54919676855206,199.04049555305392 149.17603728361428,201.2892225710675 122.98916279803962,207.780538238585 119.05492573976517,207.83480850048363 102.16235438827425,187.34545073937625 105.17861006781459,165.48890771344304 90.49057191703469,132.6306442450732 84.21600516419858,118.7577723711729 119.15006604511291,95.87962831836194 90.14005469623953,93.67711096536368 89.8486062604934,71.15335657261312 67.43902433197945,53.08427591342479 44.86182657536119,83.53492244612426 69.10715635865927,70.20287203602493 72.9364672396332,100.42417037300766 79.60141030605882,120.28971465304494" class="polygon" opacity="1.0"/>
<circle cx="63.97488817572594" cy="147.0234574470669" r="5" class="vertex_colorBlack" opacity="1.0"/>
<circle cx="74.17917355895042" cy="157.50315552111715" r="5" class="vertex_colorBlack" opacity="1.0"/>
<circle cx="25.695671089924872" cy="192.6732426462695" r="5" class="vertex_colorBlack" opacity="1.0"/>
<circle cx="5.683622783981264" cy="181.83037742972374" r="5" class="vertex_colorBlack" opacity="1.0"/>
<circle cx="33.17352011334151" cy="77.98780290875584" r="5" class="vertex_colorBlack" opacity="1.0"/>
<circle cx="7.426870632916689" cy="80.21781220566481" r="5" class="vertex_colorBlack" opacity="1.0"/>
<circle cx="12.143962546251714" cy="71.76759687252343" r="5" class="vertex_colorBlack" opacity="1.0"/>
<circle cx="27.6430871989578" cy="44.36965065076947" r="5" class="vertex_colorBlack" opacity="1.0"/>
<circle cx="21.208165092393756" cy="31.570761925540864" r="5" class="vertex_colorBlack" opacity="1.0"/>
<circle cx="32.6076658628881" cy="35.16969910822809" r="5" class="vertex_colorBlack" opacity="1.0"/>
<circle cx="37.543701701797545" cy="34.389926232397556" r="5" class="vertex_colorBlack" opacity="1.0"/>
<circle cx="71.69693882577121" cy="46.16226313635707" r="5" class="vertex_colorBlack" opacity="1.0"/>
<circle cx="83.62416992429644" cy="39.225490875542164" r="5" class="vertex_colorBlack" opacity="1.0"/>
<circle cx="97.12805237621069" cy="56.41954799182713" r="5" class="vertex_colorBlack" opacity="1.0"/>
<circle cx="125.87087298277766" cy="73.11252143234015" r="5" class="vertex_colorBlack" opacity="1.0"/>
<circle cx="102.1453747479245" cy="36.79032157640904" r="5" class="vertex_colorBlack" opacity="1.0"/>
<circle cx="82.71770597901195" cy="32.34068874269724" r="5" class="vertex_colorBlack" opacity="1.0"/>
<circle cx="167.77983377221972" cy="43.11399347614497" r="5" class="vertex_colorBlack" opacity="1.0"/>
<circle cx="169.3835996510461" cy="42.93712053447962" r="5" class="vertex_colorBlack" opacity="1.0"/>
<circle cx="188.16519260406494" cy="42.67460060771555" r="5" class="vertex_colorBlack" opacity="1.0"/>
<circle cx="186.76585715264082" cy="34.63343006558716" r="5" class="vertex_colorBlack" opacity="1.0"/>
<circle cx="212.18891127035022" cy="79.26592987030745" r="5" class="vertex_colorBlack" opacity="1.0"/>
<circle cx="233.01591630559415" cy="147.2993306769058" r="5" class="vertex_colorBlack" opacity="1.0"/>
<circle cx="226.43318329472095" cy="143.03043658845127" r="5" class="vertex_colorBlack" opacity="1.0"/>
<circle cx="221.57094173133373" cy="140.58420829940587" r="5" class="vertex_colorBlack" opacity="1.0"/>
<circle cx="218.3357102284208" cy="146.85424777679145" r="5" class="vertex_colorBlack" opacity="1.0"/>
<circle cx="245.954244392924" cy="162.80161728616804" r="5" class="vertex_colorBlack" opacity="1.0"/>
<circle cx="248.66518470924348" cy="103.67206355556846" r="5" class="vertex_colorBlack" opacity="1.0"/>
<circle cx="240.4547306895256" cy="109.2377402773127" r="5" class="vertex_colorBlack" opacity="1.0"/>
<circle cx="224.40812980756164" cy="83.84350256063044" r="5" class="vertex_colorBlack" opacity="1.0"/>
<circle cx="233.184454026632" cy="53.75186691060662" r="5" class="vertex_colorBlack" opacity="1.0"/>
<circle cx="210.9562235372141" cy="30.54582990705967" r="5" class="vertex_colorBlack" opacity="1.0"/>
<circle cx="222.3158349469304" cy="26.163849509321153" r="5" class="vertex_colorBlack" opacity="1.0"/>
<circle cx="206.54552918393165" cy="29.74939718376845" r="5" class="vertex_colorBlack" opacity="1.0"/>
<circle cx="174.03519991319627" cy="24.078844459727407" r="5" class="vertex_colorBlack" opacity="1.0"/>
<circle cx="133.67917167022824" cy="11.029499927535653" r="5" class="vertex_colorBlack" opacity="1.0"/>
<circle cx="99.20055942609906" cy="12.378969457931817" r="5" class="vertex_colorBlack" opacity="1.0"/>
<circle cx="177.89120086934417" cy="7.802380244247615" r="5" class="vertex_colorBlack" opacity="1.0"/>
<circle cx="222.51714288257062" cy="5.681082718074322" r="5" class="vertex_colorBlack" opacity="1.0"/>
<circle cx="242.8618703223765" cy="16.528974398970604" r="5" class="vertex_colorBlack" opacity="1.0"/>
<circle cx="248.73425357043743" cy="39.90661724936217" r="5" class="vertex_colorBlack" opacity="1.0"/>
<circle cx="251.5370709542185" cy="63.133348589763045" r="5" class="vertex_colorBlack" opacity="1.0"/>
<circle cx="254.18464559596032" cy="141.71650411561131" r="5" class="vertex_colorBlack" opacity="1.0"/>
<circle cx="252.30055185500532" cy="212.74511678609997" r="5" class="vertex_colorBlack" opacity="1.0"/>
<circle cx="238.45460696145892" cy="239.52909372281283" r="5" class="vertex_colorBlack" opacity="1.0"/>
<circle cx="231.48746566846967" cy="249.66789001598954" r="5" class="vertex_colorBlack" opacity="1.0"/>
<circle cx="208.148411703296" cy="226.75472194794565" r="5" class="vertex_colorBlack" opacity="1.0"/>
<circle cx="220.93496587593108" cy="218.47064699511975" r="5" class="vertex_colorBlack" opacity="1.0"/>
<circle cx="217.3483632458374" cy="151.23444073367864" r="5" class="vertex_colorBlack" opacity="1.0"/>
<circle cx="205.37531072739512" cy="88.09379359707236" r="5" class="vertex_colorBlack" opacity="1.0"/>
<circle cx="203.41038913000375" cy="99.70942197367549" r="5" class="vertex_colorBlack" opacity="1.0"/>
<circle cx="185.81831629388034" cy="51.12092126626521" r="5" class="vertex_colorBlack" opacity="1.0"/>
<circle cx="192.47418490238488" cy="96.1328544607386" r="5" class="vertex_colorBlack" opacity="1.0"/>
<circle cx="170.23986018728465" cy="61.05165672022849" r="5" class="vertex_colorBlack" opacity="1.0"/>
<circle cx="161.24194184783846" cy="52.838935162872076" r="5" class="vertex_colorBlack" opacity="1.0"/>
<circle cx="145.32853429671377" cy="65.55749778170139" r="5" class="vertex_colorBlack" opacity="1.0"/>
<circle cx="153.20797147694975" cy="89.21408978756517" r="5" class="vertex_colorBlack" opacity="1.0"/>
<circle cx="194.55564452335238" cy="102.61600266210735" r="5" class="vertex_colorBlack" opacity="1.0"/>
<circle cx="202.86742550786585" cy="119.76785608101636" r="5" class="vertex_colorBlack" opacity="1.0"/>
<circle cx="165.52565502468497" cy="170.4967749491334" r="5" class="vertex_colorBlack" opacity="1.0"/>
<circle cx="157.32661133632064" cy="171.23281966894865" r="5" class="vertex_colorBlack" opacity="1.0"/>
<circle cx="141.34666427969933" cy="140.9157667029649" r="5" class="vertex_colorBlack" opacity="1.0"/>
<circle cx="164.499722532928" cy="97.25205727852881" r="5" class="vertex_colorBlack" opacity="1.0"/>
<circle cx="151.93128503859043" cy="99.87045905552804" r="5" class="vertex_colorBlack" opacity="1.0"/>
<circle cx="107.40860271733254" cy="141.42438093665987" r="5" class="vertex_colorBlack" opacity="1.0"/>
<circle cx="136.35622860863805" cy="171.34152806364" r="5" class="vertex_colorBlack" opacity="1.0"/>
<circle cx="185.13745092321187" cy="177.97871259506792" r="5" class="vertex_colorBlack" opacity="1.0"/>
<circle cx="192.09034763742238" cy="164.1046352405101" r="5" class="vertex_colorBlack" opacity="1.0"/>
<circle cx="192.50537757296115" cy="153.955762735568" r="5" class="vertex_colorBlack" opacity="1.0"/>
<circle cx="206.737564872019" cy="180.7865243125707" r="5" class="vertex_colorBlack" opacity="1.0"/>
<circle cx="198.9134340500459" cy="219.05421383678913" r="5" class="vertex_colorBlack" opacity="1.0"/>
<circle cx="226.38118429575115" cy="249.2048816010356" r="5" class="vertex_colorBlack" opacity="1.0"/>
<circle cx="106.60661861300468" cy="254.52937196940184" r="5" class="vertex_colorBlack" opacity="1.0"/>
<circle cx="67.31740303337574" cy="248.26690286397934" r="5" class="vertex_colorBlack" opacity="1.0"/>
<circle cx="73.29052499961108" cy="239.63937640190125" r="5" class="vertex_colorBlack" opacity="1.0"/>
<circle cx="63.81443130783737" cy="235.44278693851084" r="5" class="vertex_colorBlack" opacity="1.0"/>
<circle cx="7.11875734385103" cy="226.377594047226" r="5" class="vertex_colorBlack" opacity="1.0"/>
<circle cx="28.865084978751838" cy="208.46140360925347" r="5" class="vertex_colorBlack" opacity="1.0"/>
<circle cx="60.96068815793842" cy="172.62695624493062" r="5" class="vertex_colorBlack" opacity="1.0"/>
<circle cx="74.72744211088866" cy="201.6996070696041" r="5" class="vertex_colorBlack" opacity="1.0"/>
<circle cx="81.9653778988868" cy="234.3452307349071" r="5" class="vertex_colorBlack" opacity="1.0"/>
<circle cx="86.64588280487806" cy="238.34802617318928" r="5" class="vertex_colorBlack" opacity="1.0"/>
<circle cx="203.110023397021" cy="242.49131534714252" r="5" class="vertex_colorBlack" opacity="1.0"/>
<circle cx="116.33090173825622" cy="219.64401436969638" r="5" class="vertex_colorBlack" opacity="1.0"/>
<circle cx="170.54919676855206" cy="199.04049555305392" r="5" class="vertex_colorBlack" opacity="1.0"/>
<circle cx="149.17603728361428" cy="201.2892225710675" r="5" class="vertex_colorBlack" opacity="1.0"/>
<circle cx="122.98916279803962" cy="207.780538238585" r="5" class="vertex_colorBlack" opacity="1.0"/>
<circle cx="119.05492573976517" cy="207.83480850048363" r="5" class="vertex_colorBlack" opacity="1.0"/>
<circle cx="102.16235438827425" cy="187.34545073937625" r="5" class="vertex_colorBlack" opacity="1.0"/>
<circle cx="105.17861006781459" cy="165.48890771344304" r="5" class="vertex_colorBlack" opacity="1.0"/>
<circle cx="90.49057191703469" cy="132.6306442450732" r="5" class="vertex_colorBlack" opacity="1.0"/>
<circle cx="84.21600516419858" cy="118.7577723711729" r="5" class="vertex_colorBlack" opacity="1.0"/>
<circle cx="119.15006604511291" cy="95.87962831836194" r="5" class="vertex_colorBlack" opacity="1.0"/>
<circle cx="90.14005469623953" cy="93.67711096536368" r="5" class="vertex_colorBlack" opacity="1.0"/>
<circle cx="89.8486062604934" cy="71.15335657261312" r="5" class="vertex_colorBlack" opacity="1.0"/>
<circle cx="67.43902433197945" cy="53.08427591342479" r="5" class="vertex_colorBlack" opacity="1.0"/>
<circle cx="44.86182657536119" cy="83.53492244612426" r="5" class="vertex_colorBlack" opacity="1.0"/>
<circle cx="69.10715635865927" cy="70.20287203602493" r="5" class="vertex_colorBlack" opacity="1.0"/>
<circle cx="72.9364672396332" cy="100.42417037300766" r="5" class="vertex_colorBlack" opacity="1.0"/>
<circle cx="79.60141030605882" cy="120.28971465304494" r="5" class="vertex_colorBlack" opacity="1.0"/>
<line x1="63.97488817572594" y1="147.0234574470669" x2="25.695671089924872" y2="192.6732426462695" class="edge_style" opacity="1.0"/>
<line x1="79.60141030605882" y1="120.28971465304494" x2="25.695671089924872" y2="192.6732426462695" class="edge_style" opacity="1.0"/>
<line x1="79.60141030605882" y1="120.28971465304494" x2="5.683622783981264" y2="181.83037742972374" class="edge_style" opacity="1.0"/>
<line x1="79.60141030605882" y1="120.28971465304494" x2="33.17352011334151" y2="77.98780290875584" class="edge_style" opacity="1.0"/>
<line x1="33.17352011334151" y1="77.98780290875584" x2="12.143962546251714" y2="71.76759687252343" class="edge_style" opacity="1.0"/>
<line x1="33.17352011334151" y1="77.98780290875584" x2="27.6430871989578" y2="44.36965065076947" class="edge_style" opacity="1.0"/>
<line x1="27.6430871989578" y1="44.36965065076947" x2="32.6076658628881" y2="35.16969910822809" class="edge_style" opacity="1.0"/>
<line x1="33.17352011334151" y1="77.98780290875584" x2="32.6076658628881" y2="35.16969910822809" class="edge_style" opacity="1.0"/>
<line x1="33.17352011334151" y1="77.98780290875584" x2="37.543701701797545" y2="34.389926232397556" class="edge_style" opacity="1.0"/>
<line x1="33.17352011334151" y1="77.98780290875584" x2="71.69693882577121" y2="46.16226313635707" class="edge_style" opacity="1.0"/>
<line x1="33.17352011334151" y1="77.98780290875584" x2="83.62416992429644" y2="39.225490875542164" class="edge_style" opacity="1.0"/>
<line x1="102.1453747479245" y1="36.79032157640904" x2="167.77983377221972" y2="43.11399347614497" class="edge_style" opacity="1.0"/>
<line x1="125.87087298277766" y1="73.11252143234015" x2="167.77983377221972" y2="43.11399347614497" class="edge_style" opacity="1.0"/>
<line x1="125.87087298277766" y1="73.11252143234015" x2="169.3835996510461" y2="42.93712053447962" class="edge_style" opacity="1.0"/>
<line x1="188.16519260406494" y1="42.67460060771555" x2="212.18891127035022" y2="79.26592987030745" class="edge_style" opacity="1.0"/>
<line x1="188.16519260406494" y1="42.67460060771555" x2="233.01591630559415" y2="147.2993306769058" class="edge_style" opacity="1.0"/>
<line x1="188.16519260406494" y1="42.67460060771555" x2="226.43318329472095" y2="143.03043658845127" class="edge_style" opacity="1.0"/>
<line x1="248.66518470924348" y1="103.67206355556846" x2="224.40812980756164" y2="83.84350256063044" class="edge_style" opacity="1.0"/>
<line x1="248.66518470924348" y1="103.67206355556846" x2="233.184454026632" y2="53.75186691060662" class="edge_style" opacity="1.0"/>
<line x1="233.184454026632" y1="53.75186691060662" x2="222.3158349469304" y2="26.163849509321153" class="edge_style" opacity="1.0"/>
<line x1="222.3158349469304" y1="26.163849509321153" x2="174.03519991319627" y2="24.078844459727407" class="edge_style" opacity="1.0"/>
<line x1="222.3158349469304" y1="26.163849509321153" x2="133.67917167022824" y2="11.029499927535653" class="edge_style" opacity="1.0"/>
<line x1="133.67917167022824" y1="11.029499927535653" x2="177.89120086934417" y2="7.802380244247615" class="edge_style" opacity="1.0"/>
<line x1="222.3158349469304" y1="26.163849509321153" x2="177.89120086934417" y2="7.802380244247615" class="edge_style" opacity="1.0"/>
<line x1="222.3158349469304" y1="26.163849509321153" x2="222.51714288257062" y2="5.681082718074322" class="edge_style" opacity="1.0"/>
<line x1="233.184454026632" y1="53.75186691060662" x2="222.51714288257062" y2="5.681082718074322" class="edge_style" opacity="1.0"/>
<line x1="248.66518470924348" y1="103.67206355556846" x2="222.51714288257062" y2="5.681082718074322" class="edge_style" opacity="1.0"/>
<line x1="248.66518470924348" y1="103.67206355556846" x2="242.8618703223765" y2="16.528974398970604" class="edge_style" opacity="1.0"/>
<line x1="248.66518470924348" y1="103.67206355556846" x2="248.73425357043743" y2="39.90661724936217" class="edge_style" opacity="1.0"/>
<line x1="248.66518470924348" y1="103.67206355556846" x2="251.5370709542185" y2="63.133348589763045" class="edge_style" opacity="1.0"/>
<line x1="245.954244392924" y1="162.80161728616804" x2="251.5370709542185" y2="63.133348589763045" class="edge_style" opacity="1.0"/>
<line x1="245.954244392924" y1="162.80161728616804" x2="254.18464559596032" y2="141.71650411561131" class="edge_style" opacity="1.0"/>
<line x1="245.954244392924" y1="162.80161728616804" x2="252.30055185500532" y2="212.74511678609997" class="edge_style" opacity="1.0"/>
<line x1="218.3357102284208" y1="146.85424777679145" x2="252.30055185500532" y2="212.74511678609997" class="edge_style" opacity="1.0"/>
<line x1="218.3357102284208" y1="146.85424777679145" x2="238.45460696145892" y2="239.52909372281283" class="edge_style" opacity="1.0"/>
<line x1="218.3357102284208" y1="146.85424777679145" x2="231.48746566846967" y2="249.66789001598954" class="edge_style" opacity="1.0"/>
<line x1="231.48746566846967" y1="249.66789001598954" x2="220.93496587593108" y2="218.47064699511975" class="edge_style" opacity="1.0"/>
<line x1="218.3357102284208" y1="146.85424777679145" x2="220.93496587593108" y2="218.47064699511975" class="edge_style" opacity="1.0"/>
<line x1="218.3357102284208" y1="146.85424777679145" x2="217.3483632458374" y2="151.23444073367864" class="edge_style" opacity="1.0"/>
<line x1="218.3357102284208" y1="146.85424777679145" x2="205.37531072739512" y2="88.09379359707236" class="edge_style" opacity="1.0"/>
<line x1="221.57094173133373" y1="140.58420829940587" x2="205.37531072739512" y2="88.09379359707236" class="edge_style" opacity="1.0"/>
<line x1="226.43318329472095" y1="143.03043658845127" x2="205.37531072739512" y2="88.09379359707236" class="edge_style" opacity="1.0"/>
<line x1="188.16519260406494" y1="42.67460060771555" x2="205.37531072739512" y2="88.09379359707236" class="edge_style" opacity="1.0"/>
<line x1="188.16519260406494" y1="42.67460060771555" x2="203.41038913000375" y2="99.70942197367549" class="edge_style" opacity="1.0"/>
<line x1="188.16519260406494" y1="42.67460060771555" x2="185.81831629388034" y2="51.12092126626521" class="edge_style" opacity="1.0"/>
<line x1="169.3835996510461" y1="42.93712053447962" x2="185.81831629388034" y2="51.12092126626521" class="edge_style" opacity="1.0"/>
<line x1="169.3835996510461" y1="42.93712053447962" x2="192.47418490238488" y2="96.1328544607386" class="edge_style" opacity="1.0"/>
<line x1="169.3835996510461" y1="42.93712053447962" x2="170.23986018728465" y2="61.05165672022849" class="edge_style" opacity="1.0"/>
<line x1="169.3835996510461" y1="42.93712053447962" x2="161.24194184783846" y2="52.838935162872076" class="edge_style" opacity="1.0"/>
<line x1="125.87087298277766" y1="73.11252143234015" x2="161.24194184783846" y2="52.838935162872076" class="edge_style" opacity="1.0"/>
<line x1="125.87087298277766" y1="73.11252143234015" x2="145.32853429671377" y2="65.55749778170139" class="edge_style" opacity="1.0"/>
<line x1="125.87087298277766" y1="73.11252143234015" x2="153.20797147694975" y2="89.21408978756517" class="edge_style" opacity="1.0"/>
<line x1="97.12805237621069" y1="56.41954799182713" x2="153.20797147694975" y2="89.21408978756517" class="edge_style" opacity="1.0"/>
<line x1="153.20797147694975" y1="89.21408978756517" x2="202.86742550786585" y2="119.76785608101636" class="edge_style" opacity="1.0"/>
<line x1="97.12805237621069" y1="56.41954799182713" x2="202.86742550786585" y2="119.76785608101636" class="edge_style" opacity="1.0"/>
<line x1="202.86742550786585" y1="119.76785608101636" x2="157.32661133632064" y2="171.23281966894865" class="edge_style" opacity="1.0"/>
<line x1="202.86742550786585" y1="119.76785608101636" x2="141.34666427969933" y2="140.9157667029649" class="edge_style" opacity="1.0"/>
<line x1="202.86742550786585" y1="119.76785608101636" x2="164.499722532928" y2="97.25205727852881" class="edge_style" opacity="1.0"/>
<line x1="97.12805237621069" y1="56.41954799182713" x2="164.499722532928" y2="97.25205727852881" class="edge_style" opacity="1.0"/>
<line x1="97.12805237621069" y1="56.41954799182713" x2="151.93128503859043" y2="99.87045905552804" class="edge_style" opacity="1.0"/>
<line x1="192.09034763742238" y1="164.1046352405101" x2="206.737564872019" y2="180.7865243125707" class="edge_style" opacity="1.0"/>
<line x1="185.13745092321187" y1="177.97871259506792" x2="206.737564872019" y2="180.7865243125707" class="edge_style" opacity="1.0"/>
<line x1="185.13745092321187" y1="177.97871259506792" x2="198.9134340500459" y2="219.05421383678913" class="edge_style" opacity="1.0"/>
<line x1="136.35622860863805" y1="171.34152806364" x2="198.9134340500459" y2="219.05421383678913" class="edge_style" opacity="1.0"/>
<line x1="226.38118429575115" y1="249.2048816010356" x2="67.31740303337574" y2="248.26690286397934" class="edge_style" opacity="1.0"/>
<line x1="226.38118429575115" y1="249.2048816010356" x2="73.29052499961108" y2="239.63937640190125" class="edge_style" opacity="1.0"/>
<line x1="63.81443130783737" y1="235.44278693851084" x2="28.865084978751838" y2="208.46140360925347" class="edge_style" opacity="1.0"/>
<line x1="73.29052499961108" y1="239.63937640190125" x2="28.865084978751838" y2="208.46140360925347" class="edge_style" opacity="1.0"/>
<line x1="73.29052499961108" y1="239.63937640190125" x2="60.96068815793842" y2="172.62695624493062" class="edge_style" opacity="1.0"/>
<line x1="73.29052499961108" y1="239.63937640190125" x2="74.72744211088866" y2="201.6996070696041" class="edge_style" opacity="1.0"/>
<line x1="73.29052499961108" y1="239.63937640190125" x2="81.9653778988868" y2="234.3452307349071" class="edge_style" opacity="1.0"/>
<line x1="73.29052499961108" y1="239.63937640190125" x2="86.64588280487806" y2="238.34802617318928" class="edge_style" opacity="1.0"/>
<line x1="226.38118429575115" y1="249.2048816010356" x2="86.64588280487806" y2="238.34802617318928" class="edge_style" opacity="1.0"/>
<line x1="226.38118429575115" y1="249.2048816010356" x2="203.110023397021" y2="242.49131534714252" class="edge_style" opacity="1.0"/>
<line x1="198.9134340500459" y1="219.05421383678913" x2="203.110023397021" y2="242.49131534714252" class="edge_style" opacity="1.0"/>
<line x1="198.9134340500459" y1="219.05421383678913" x2="116.33090173825622" y2="219.64401436969638" class="edge_style" opacity="1.0"/>
<line x1="198.9134340500459" y1="219.05421383678913" x2="170.54919676855206" y2="199.04049555305392" class="edge_style" opacity="1.0"/>
<line x1="136.35622860863805" y1="171.34152806364" x2="170.54919676855206" y2="199.04049555305392" class="edge_style" opacity="1.0"/>
<line x1="136.35622860863805" y1="171.34152806364" x2="149.17603728361428" y2="201.2892225710675" class="edge_style" opacity="1.0"/>
<line x1="107.40860271733254" y1="141.42438093665987" x2="149.17603728361428" y2="201.2892225710675" class="edge_style" opacity="1.0"/>
<line x1="107.40860271733254" y1="141.42438093665987" x2="122.98916279803962" y2="207.780538238585" class="edge_style" opacity="1.0"/>
<line x1="107.40860271733254" y1="141.42438093665987" x2="119.05492573976517" y2="207.83480850048363" class="edge_style" opacity="1.0"/>
<line x1="119.05492573976517" y1="207.83480850048363" x2="105.17861006781459" y2="165.48890771344304" class="edge_style" opacity="1.0"/>
<line x1="107.40860271733254" y1="141.42438093665987" x2="105.17861006781459" y2="165.48890771344304" class="edge_style" opacity="1.0"/>
<line x1="107.40860271733254" y1="141.42438093665987" x2="90.49057191703469" y2="132.6306442450732" class="edge_style" opacity="1.0"/>
<line x1="151.93128503859043" y1="99.87045905552804" x2="90.49057191703469" y2="132.6306442450732" class="edge_style" opacity="1.0"/>
<line x1="151.93128503859043" y1="99.87045905552804" x2="84.21600516419858" y2="118.7577723711729" class="edge_style" opacity="1.0"/>
<line x1="151.93128503859043" y1="99.87045905552804" x2="119.15006604511291" y2="95.87962831836194" class="edge_style" opacity="1.0"/>
<line x1="97.12805237621069" y1="56.41954799182713" x2="119.15006604511291" y2="95.87962831836194" class="edge_style" opacity="1.0"/>
<line x1="83.62416992429644" y1="39.225490875542164" x2="119.15006604511291" y2="95.87962831836194" class="edge_style" opacity="1.0"/>
<line x1="119.15006604511291" y1="95.87962831836194" x2="89.8486062604934" y2="71.15335657261312" class="edge_style" opacity="1.0"/>
<line x1="83.62416992429644" y1="39.225490875542164" x2="89.8486062604934" y2="71.15335657261312" class="edge_style" opacity="1.0"/>
<line x1="83.62416992429644" y1="39.225490875542164" x2="67.43902433197945" y2="53.08427591342479" class="edge_style" opacity="1.0"/>
<line x1="33.17352011334151" y1="77.98780290875584" x2="67.43902433197945" y2="53.08427591342479" class="edge_style" opacity="1.0"/>
<line x1="33.17352011334151" y1="77.98780290875584" x2="44.86182657536119" y2="83.53492244612426" class="edge_style" opacity="1.0"/>
<line x1="79.60141030605882" y1="120.28971465304494" x2="44.86182657536119" y2="83.53492244612426" class="edge_style" opacity="1.0"/>
<line x1="44.86182657536119" y1="83.53492244612426" x2="72.9364672396332" y2="100.42417037300766" class="edge_style" opacity="1.0"/>
<line x1="44.86182657536119" y1="83.53492244612426" x2="72.9364672396332" y2="100.42417037300766" class="edge_style" opacity="1.0"/>
</svg>